<mxfile host="app.diagrams.net" agent="Mozilla/5.0 (Windows NT 10.0; Win64; x64) AppleWebKit/537.36 (KHTML, like Gecko) Chrome/128.0.0.0 Safari/537.36" version="24.7.8">
  <diagram name="Page-1" id="u87G6lTsy_RlipVK8SHL">
    <mxGraphModel dx="1313" dy="1832" grid="1" gridSize="10" guides="1" tooltips="1" connect="1" arrows="1" fold="1" page="1" pageScale="1" pageWidth="827" pageHeight="1169" math="0" shadow="0">
      <root>
        <mxCell id="0" />
        <mxCell id="1" parent="0" />
        <mxCell id="1F9SLgFvnqWuvNnv6nxa-31" value="" style="rounded=0;whiteSpace=wrap;html=1;strokeWidth=2;" parent="1" vertex="1">
          <mxGeometry x="484.99999999999994" y="118.73999999999998" width="40" height="160" as="geometry" />
        </mxCell>
        <mxCell id="1F9SLgFvnqWuvNnv6nxa-2" value="" style="rounded=0;whiteSpace=wrap;html=1;strokeWidth=2;" parent="1" vertex="1">
          <mxGeometry x="225.99" y="120" width="40" height="160.32" as="geometry" />
        </mxCell>
        <mxCell id="1F9SLgFvnqWuvNnv6nxa-4" value="" style="shape=image;verticalLabelPosition=bottom;labelBackgroundColor=default;verticalAlign=top;aspect=fixed;imageAspect=0;image=https://www.cc-lacqorthez.fr/CYBERBASE/wp-content/uploads/2020/04/Navigateurs.jpg;" parent="1" vertex="1">
          <mxGeometry x="80" y="181.63000000000002" width="84" height="45.83" as="geometry" />
        </mxCell>
        <mxCell id="1F9SLgFvnqWuvNnv6nxa-5" value="&lt;b&gt;&lt;font style=&quot;font-size: 14px;&quot;&gt;Authentification&lt;/font&gt;&lt;/b&gt;" style="text;html=1;align=center;verticalAlign=middle;whiteSpace=wrap;rounded=0;rotation=-90;" parent="1" vertex="1">
          <mxGeometry x="185.99" y="189.54" width="120" height="30" as="geometry" />
        </mxCell>
        <mxCell id="1F9SLgFvnqWuvNnv6nxa-6" value="" style="rounded=0;whiteSpace=wrap;html=1;rotation=90;strokeWidth=2;" parent="1" vertex="1">
          <mxGeometry x="458.43" y="300" width="96" height="137.08" as="geometry" />
        </mxCell>
        <mxCell id="1F9SLgFvnqWuvNnv6nxa-7" value="&lt;b&gt;&lt;font style=&quot;font-size: 14px;&quot;&gt;Sécurité&lt;/font&gt;&lt;/b&gt;" style="text;html=1;align=center;verticalAlign=middle;whiteSpace=wrap;rounded=0;rotation=0;" parent="1" vertex="1">
          <mxGeometry x="443.43" y="325.54" width="120" height="30" as="geometry" />
        </mxCell>
        <mxCell id="1F9SLgFvnqWuvNnv6nxa-9" value="" style="shape=image;verticalLabelPosition=bottom;labelBackgroundColor=default;verticalAlign=top;aspect=fixed;imageAspect=0;image=data:image/png,iVBORw0KGgoAAAANSUhEUgAAAXUAAACeCAIAAABCaw1qAAAgAElEQVR4Ae2dB5wTVf7Ak2wFKYcuiMvC0lGKWLCiKBY8wY6w4Kmod/ZeT8/zFPl7enYECxYURVFPFJWybAFBpCiwtO3Z9DLpySSZkmn/e/OSt0PaZpfNwsIL+wkvM29e+c37fef3fq+MSsIfLAEsASyB7EhAlZ1kcapYAlgCWAIS5gtuBFgCWALZkgDmS7Yki9PFEsASwHzBbQBLAEsgWxLAfMmWZHG6WAJYApgvuA1gCWAJZEsCmC/ZkixOF0sASwDzBbcBLAEsgWxJAPMlW5LF6WIJYAlgvuA2gCWAJZAtCWC+ZEuyOF0sASwBzBfcBrAEsASyJQHMl2xJFqeLJYAlgPmC2wCWAJZAtiSA+ZItyeJ0sQSwBDBfcBvAEsASyJYEMF+yJVmcLpYAlgDmC24DWAJYAtmSAOZLtiSL08USwBLAfMFtAEsASyBbEsB8yZZkcbpYAlgCmC+4DWAJYAlkSwKYL9mSLE4XSwBLAPMFtwEsASyBbEkA8yVbksXpYglgCWC+4DaAJYAlkC0JYL5kS7I4XSwBLAHMF9wGsASwBLIlAcyXbEkWp4slgCWA+YLbAJYAlkC2JID5ki3J4nSxBLAEMF9wG8ASwBLIlgTa4IsoitnKGaebWgJY7Kllg890Jwm0wRdJkkT86XIJdKcWhMuKJZBaAu3gi4A/2ZcARBnEeuq7hs9gCXQPCWTKF0EQuvwp3naGmZcq85ht55rNGLCcmC/dQ3twKduSQDfmC1RFQRD4DD4ocjbh0AlpY7601WLx+e4kgW7JF9hNEUWRpmmHw2EFH5vFkvzParVZrVan08lxEVEUoQJ3AgmykwTmS3fSHlzWtiTQjfkiSZLD4dBqtRaLTJhkXxaL1WazabXaPXv2BINBzJe22gM+jyXQmRI4gviCujDIi5oKBzCCJEkEQbhcLlEUeZ4XBB5diAI8z4uiGAgE6urqQqFQqgShLYIKIMrOpsNi6WD7pTNbN07rcEvgiOALwgHU/9afsVBcXwQehvaLy+VKI0M4kSQYDDY0NKTnC4JLLM/W/+Nyz+pPzJc0dxOf6nYSOPx8gXrcShZR4GRrRD4OdDnRjoCXQL44nc70Ci9JUpt8aWWJ7C5GlpAogNwTC5A+x0M5i/nS7VQIFziNBA4zX5DuQjUWBMFHM79ZzQecDiVk4jQcRpYkyW63OxwOaKQknfOaif2CshZFkaMZX63Wt6+J9QcF0OcCH8S+QwFHhtdivqRprPhUt5PAYeNLnOoKoshxXEvA/47VOMVYd6+x0ej3wzjoG6koPCJJks1mg3yBpxKlj/jS2NiYqn+E0ucjnH9nnePe193X/Mu1dE3ITPARDp7tMsRgviTeRHyk+0rg8PBFkHs9SLEFUfRT1Da3825D4xC7Vh22He/Qzjc0u8PhaMxoNyU6x68DfGlqamqTL0GD1fmPJdTAmznVDeTJf3M8+yH5ewNHs7HMo4YMwlw2Apgv3VeXcMkTJXBY+QIoI0Y4zhgOLbUYZhgberl16pBVQ9k1QctYW/M3dnOYYZQwgirdWXyJ2ibyf7Qn4F6yOjj+PiFntqQqE1UzQ0U3ua+cT/68Lez2QidQF/SVMF8S2yg+0n0lcBj4ArUaKhIVidR4Pc9adONtzfk+oypsU1N2+F1AWmaYG7e6HJzsB4FGRCfyRQkXjqb9Fb+7L/0Hmz9bVJeJqjKAGPWsSM7s4JkPORatCLWYI2xEgO7emPF1WOyX9JlmoyGmzzGp26tzi5GmAJ2bUWJqabJGpxKvavMIuvbIDLRZ/swjdClfEFnAKI0guGh6tYu43dpS7GjJCVpUMllUYRv8U4dtfTz6Oy3axoAf9VCUFkS7/C9x/aODShKJBPY3ee59iym6WVTNFoHxMltSyaBRlwmq66nRdzjuWeit2skGQ8DbCygD/zp/TVYa+wW2xfS3NpM46VNQnu3c1JQppw8rtS76GJAPoatgBCgrZeROhB1MFuWYKpBhNHg5Kmqq1I6Q450oxq7jC0KDKIoRjm8O+F8nzJPtLX29Rk3ICphC2VsRA62YkHWIo+Utm8ETCkWJELMdBEE4RL6Amy1zgra5XC8tDw65XdTMgnCJUaYMUEY1W1LPCvWe67/8OfeytWGbA4wqxYqBWkxnBVLxBaUfiUSoFB+GYZDKHXpLhTkKgsCybNIMw+FwJAKWXMBPZ+UYSw88U5Tbg3Acz7IswzAsG+H5Nsh+6IWBWfM8zzBM0upTFA2r3668YO04jqNpOkWyh/kwx3HoFrSrakkjdx1f0BBMkGW3up1PWHQjiJZc0hI1WJDxggKyIZNPWi6waVfZLDTLylotIt3uMF9aSScIXIjyfl3tPe0BPucguECyyB0l2aJRz+YL5gRPv9/94qe+nXUsRSufq+h+HHogKV9QspIk1dTULFu27Msvv1yu+Hz55ZdffPFFdXW11+tVRk56yzM8CNMJBAK//vrrV199pcht+Zfy5/PPP6+pqUFEO5SHHiozDKA0GYYhCKK2tnbLli3r1q1bufL777777ocfVlVWVu7YsaOpqcnlcin1QZlOhtVMGg2l4/F4qqqqYH2Xxz5Q+N99993evfsikUjSFJIehMlGIpG6urrvv/8+7ibGkj88/8PCfPXVV/X19XBqyKHcUFT9LueLKJjIwHOGphKXLidoVcd6Q62UQVZMDDTH+YzXWrS/elwsIGtsxlt77JdQKNTcrA2Hw5BxUVeOIHBsJLDzgH/2fLZgliT7XCS5ZxQLg45SK2JUs4Xc2cGRd9gWLA063RBzsMV04ncavsDn+fvvvz9y5MjRCZ9Ro0bdddddDQ0NqDDoHncsANMxGo1PP/3MhAkTEjIcPXLkyEWLFinV+1AyQsWGgUAgsHPnzs8///zZZ5+97rrrzjzzzAkTJpwif8aOHTtx4sTzzjtv7ty5CxYsWLly5YEDByiKit5cRUIdK4+k2FNNp9PdddddY8eOTaz+5MmTP/zwQzgomaEqwqKFQqHly5dPnXpJYpqH98ioUaNOO+20r7/+mmEYuLCmwwJEF3YdX5DLI8AwH9uMw62NKtgtQoiBZEHfsMcUtqnDtj+5dA+YtcYgiYygdvWPwuFwS4uulS+iKM/QFSmTw/P4+5ET5ogqYLzIWAGDR8q/WF8JuGM49SzPyfe4vq6IUDRoK/LUO0V77oRgm3x55513CgsLVQkfjUZz3XXXHThwABUC3eOOBWA6er3+nnvu6dWrV0KG4MCLL77Isuyh5AivVap0KBTetWvXm2++OW3atNLS0qKiolT17dmz54ABA8aMGTN79uwlS5Y0NDQou1QdqzW8CpVKq9Vee+21BQUFarU6TgLFxcWvv/46SYI22S6+BIPBJUuWjBw5KjHNuCy6/ucJJ5zw6aef0jTd/fgCb4Ps2eUbfd5HjU0D3PqowwWaKogsyISJIUYTsk5w6D4x673BIOJU5v2jcDis0+kRX4AOCyIbCDnfWRke8jdRPUtUy36Wg8kij1K32i+SajZzwi3EP5YGrc4sGS/oCQz1DWkIEp0kSWn4cv3112eDL/fee2/v3r2TtvVD5AusF4ILz/NNTU2LF787ffr0gQMH5ufnJ8007qBare7Ro0dJSUlZWdlnn30G16OhlJEM2xVAl2u12muuuaagoECj0SjzVavVgwYN6jBfPvzww1Gjjiy+QNgVFRV99tln3ZUv8OEsCEKE47e5nVcZG3J9htaeEXLxItAg0yZsy/WbzjM2rHbYWY6D6n0ofOE5zle53TPpHl4zUwID0mDASGm2QFsmOpAkn+J7zHLd8pK/QQecizHIwYbYid+HYr90PV/mz5/fYfsF6TAM0DTz229b77rrrpKSkvz8/PY+29VqdUFBwUknnfTEE09otVooRmhWZGhcKAGEytbc3Az5klie4uLi1157rWP2yxHIF0jPbs+XmGIKQZr+xmE9g2jRBGMuXkgTBBdkxcjWjZqyF3qNsw2Ne30euC5IkiSTyWyz2dADUNlEYBi2rYPsF14QJcn9v0VGNzwj5t0gGylwnOigbhHy74L+kXqOmDMrMOUxzy87gbtBzh40wTYGMWArbd/3EciXLPWPkPKLohgKhVavXjNjxozevXur5Y/SWMgwDC/s0aPHbbfdtnv37kNBDOJLS0tL0v7R0We/HA18QfY/oIwoumjqNbthiEsX9fLGHLrRgWoEmlgvSR22FTtaXrUaXOEQLwBMGAxGi8XSDr4IgiSKTCjseWRJJG+mFHW7oDkvrYiRB6oRd2YxJ93hW1oekX0NsOGi5ts+frQVGyabpn+0aNGiHj16JKqcRqPJhv1iMBjuu+++VP2j+fPnMwyD6pTI91RH0CWiKFIUtXbt2ksuuaQDZkucHKCVUVhYOHfu3N27DxrbapcVA4snSVIqvqhUKmy/pLq5yuNd599FTUqpn/Vk4DZrSx+vEU7bld0x8iwYBJc46ISs462Nyy0GkmE6xheWZc2frAoMukWeQTcHuW+VnSPlsJGkKmN7XOt97gPaF/UuQ0oeLr68++67PXv2jNOr/7laoX93//79SM7K29yBMEzHYDDcf//9ffr0Sczxf0deeOGFDvMFMpRhmM2bN19zzTWFhYWJfZC4TKGF0mY0lUrVu3fvu+++u7GxUXmbMhdChnx59dVXO9w/Gj16tEajQTVqbyBOMnE/25uaWq2Ghenfv/+yZcu6q/8F3jbkHBVEMRLhql3EZXZtYcAsT7GLTt5NYsIgX4zfNNncWOlyMDyvb4/9QoXDAi/YN//uOPtuUXWDpAZwic6gO8j5EvX1yjPryiK5N1hnPuNuagFYgT0jOHsX6XGnBtq0XxYvXtzd+YJ6RjzP19bW3nHHHccdd1ychih/Qm3RaDS5ubl5eXm5ubnwiDKOMgzPDho06IUXXjCbzcr7kyFi4CXZs1+WLFkyevTo/I5+cnNzlfVVhtVqdW5uXkcTzi8qKlq6dGn35gt0XCBHTJhllzss4wltTjA2izetI0ZF2QvcutsMjc0kqdPrzRn2j1r0FE0HtRb73Pms6mpJNUc5sSXReJHdLmWC5kb3xPuIiq2CJEVnzcgzd5VNFobRcxIFEuNkcqRNvixatCjVeG02+kd6vT7N+FEH+kdKIbjd7nfeeae0tFSpIXFhtVrds2fP/v37jx49+txzz7344ovPOeecESNGHH/88QUFhXHDOuhaWc1yTz/99BUrVoRCYVGMviawvXxB40dxRhP0v3TMv0tR1KpVq269dd50+XPlldPb83fljBlXTZo0KRVi+vbte84550yfPqM9aYICTJ8+/corr7z++uvXrFnDsixqhxlKLFW0zu8fQd8KwgfsTShbFQyjaKIoWkPBJ80tA1wtGkSWxLEk1FGS4wwmml83t+yqb7BYrGJsQlRiJeGjkqIoo8nksRHWlz4L9AJT6WLrAODIUavbRTZnom4XUT0rPGQe8e73cBo4lHgiPtDxNqucKITEI+i+Kv0FSGKSJKXhS5bmv6ThSwfGp1GVWTayZcuWK6+8Mi8vD3FBGVCr1fn5+cOGDZs7d+4rr7zy9ddfV1dXb9mypbKy8vPPP//nP/955ZVXlpSUpLm8T58+8+bN27dvn3I9QWIjSTwCCylJUqrxo0PhC8/zBEHs27e/Bnz2tOtv9+7d+/fvX7hwYVIbVqVSjR8//sMPP9qzZ08HEq+pqdm7d6/L5UKNPFEy7T3SyXxB1JCLiDROXg4ISRMbc2k9J89S2+11zzI29PIpHTGxFUnIFxMGS6ujfwHTKZbGl3f+bjBZYkmCVqGsP2olNM3omluMn/3oP+1OUXOjCIwXOBodNyzdOttFVM1ies/xPvke6QD7h8eVFqacQBZwGB2Ecdr7DS8/cvy7er2+c/27SCAOh/Oll1468cQTlUxBYWi2XHTRRR988IG8NzuYe41uLs/zHo9n27ZtCxYsmDRpUlKHt0qlUqvVo0ePfv/9930+H8oXJZImACNLktS58+tgjsqKpClD0lPw2h9++CGVx/2ss86qrKw8lCzi2l7SYmR+MCt8EeV3nlGxWYCtS4aUanpwmItE1tstU6zNeWjRADRYEFxgACGGsqtIy6jfN1c0N0kHjxSjyqNWQjFM45pN9osfF/JmKgaG4ie8xHpMsyV1GZ8/yzPtH8Gd9aiYcZSRnTDySThMLYgMwzJ067okSArUrDMMtMmXt99+O+kTO0vjR507fxcJgeO4bdu2TZ06NScnBzFFGejZs+c111xTXV0NJ+DDRo8uhwFBEBwOxxdffDFlypSkfUaVStWjR485c+bs378f3Q7UPNIEYPrp7ZeSkpI333wTvvQmQ31GycZVJPOfsBYrV65MNaN60qRJFRUVmSeYNCaSdhoRZXgqC3yRNY/wB39sdKwxBOqdAR8Ziu7hAmqDFBaYHcDXCw+JIknTS6zGwfbm6LoBKmaqKBGD7Be5A5WrrfmoqZ5nWOAfkZ9vcXcais/r9tS/+hk54C9otAiiROl2UXaahJxZwdMf9P93E0cxcMGT0jAB9xjYXFHCMDTjd5Cu3X7zt07DSjPjA+O1qDUnvX9pDsIL454hMD6c/L5w4cKCggKlKsJw9vhy7733pmrNHe4fwTny/3PBQisjrjp5eXmXXnrpxo0b4Sz1NOISRdHv93/xxRcTJ05M5Ys57bTTvvvuO7hAKa55pFISmGN6vgwaNOiNN95oF19QdulrlOYsbANdwxdU2kMJdD5f4NuIKrXEtA3E6VXu27fYXq4hlje6dtl8Xoph5B1t4codQYBT1aLEEUXRQpKPGhr7uHVyJ0juDSnhEjVhWrmTb679WNcUcLmZZBsFwPsUiXBWo3nvv94N9b8JulfgsNHBcIlOgRFVZYJqVnjUna43v6ad3lYWKiwVGR98hIkECNL+u0u/nGh5ydEw19F8uq/ucsJTGxCl1hqlaStJT7XJl269PgBV2W6333///amGjUaPHr1s2TK4ngNdgtCgPALDbrf7+eefLyoqivPCQmz179//X//6F9qnORNtgcm2yZf2+nczyTpNHPjckiQpc76kSa1rTmWFLxQbeaXGMaDcq14f6l0ZHFgRGLXOfsMW5z8PBD6rd+y1+x1kmAbbwcVMGBk0cFbuAbdrRvO+HL8pujQpjaOXsucb9y+3GkmX23nwOn1k4EUiEb/fbzNb6v79cejEm5H7Nhlcok7f8HFlrgfeCTUZeY4DA9I86n0JvACwEnLSjt1ey7ce3b9cDTOJxnM85rG0ZRhrO4k3j2ItP7k4HuygARmTqAzpjxyZfOks+wXWXRCE+vr6K664IqnFkZ+ff+edd7a0gAkBSW1SqBjwLPretWvXhRdemNQays/Pv/XWW7VaLYyciV6hmOn9u+1df5RJ1mniHOt8iWqUIBhc/pt/c/ZcH9RU0epK+a8i1KMyfEJVaEyl89qt3kd2OpfLoLGTFBPhRKDEoKPEi2KEjawyG8aaG1RxO9opDRnQSwLT8PKN+1cQFp5lrXa70ocH2wfP8yRJ+nw+r8vd9Opnqfii6DTN5vJn+f78rG/DTtAzAoUC5eJFjqVZ0h6y7/LovyT0z3m1N/p0F5DGUxjL4Ii9lHcMFR3DRedwyVLKHXjMwgTBkmJICphE5t/HAl84jtu0adPEiROT4qC4uPijjz5C/Q4ouqRah6QqSVIoFHrkkUeS9hxzcnKuvfZatGIgaVJxB1GmqfjSsfm7cbm09ydsVMeq/RJ7XguCuF7vOW+jO7eSUldSqkpaVUmpqmg1YA04UlBJ/akiMLbac8Um58O/O75tcu+y+y2BsDz7XpBEKUAzrxu1J9oaW3tJ0O2CEHMwX8AbYINBm81GURSyXOCqFqfTSVFU0B9oevWz8InynF2wSBoNHsEdXsCEOtAzyp3lP+1e56erGW8A9PJEsHeZ3xJ0bPcZljub/uFovt7XMglgxTqEsw8RiGGiYxggi2O4RAwXHSMk6yCh/nyvXx8E8y3kVZBIBzIMHAt8iUQi33///ahRo5Ly5ZxzzqmqqopEouZtm0oIBSsIwtKlS+FoVFwvSaPRXHLJJRs3/pL5dnNt8qVj64/arEv6CMc2X2JP7DDNvLLbdtI6lwwXCsAF8CUGmkpKBg2tqaTy14f6VZKjK70XbHTes832VR2x3R6w+UiRixCh4BNWXU+3rrWXpERMPF8kThA8Hg9BECzLQsQwDONyufw+H8/zwUA8X9BQUcx4AW4XavBtvn9/QVkIKhwOWIKOX/3Gpa7mR51N03y6CWHTGMY6jLcPEYlhIjEMAAUwRf6OHhkhOkokwyiq+XsTx8kWmczcDMmC9CSxU4BOHWn7M7R3/TSsCMuyy5cvHzZsWCJf1Gr1VVddtWvXLqVnN43WKWVbUVExcuTIpGmed955a9asgUsZ0qSGTsFksf8FCaTDgU7zv8TMF7HF4b1ji633elINmALhQquqolaMfEQOA9DIrKmgcivCvSrI4nXuMzc4Ht5q/qLeUWHy/KTTX26sU4Ws8tIkxcwXCBpF/0gUJV4QIpGI2+32eDzyK155n8/vdLoZhpFEMY4vMlOgQxf6XMpE9Wy+3xzHzQt0a7fbNrn07zka73c0nuczj2CspRHrMJ4YIjqGSdBOAWQBiJH5Ih90DJcgaJzDJeMQpu5hOw9WR3Wki5SJ/ZK0F5DV8aNUsy3aO34E9ZZhmKVLlw4ePDgpC8rKympraxFf2mzZiAVbt24dO3Zs0jTPPvvsn376iabBrmBtJohM4Db5gv0vbQqz0/gCjTdBENY0O85eb82tCB0ElyoZMfA71mOK2jVVoPcEAZRTGe5RGeq72jVsneVvv9mmbqlT1exSubSgo4Q6R2gib8z/AvkiiiJN0wTh8Pn8gQDpdLpoOrrfdYwvUf+ubLxEX0IiL6G+Pqy61lLyeF1Z1d55uvrzXfohtG0gbx8sOIZKiVhxyMYLPC6TJcadYaJjpGg/UdROCdibnIIEdrFC2FU+adOE2+RLt15/hPjyySefpOLL3Llz6+rqoBwywQHiy7Zt28aNG5eUL2edddaqVasgX9qVZueun25TG9NHOKb7R7BB0DT9zl57yVqXuiKcki+INcg7g/pQUdYA0yZ3PZWziihate+W+sZZpsaBhgMaBWiAUaPkS1SRBb8/YDAYTSZTIBBA2xRDvoRk/4s8cjRbUs2SVNezOdc4R9xunffv/Tct3j1uY3ORz3YC7zgJmirAPIn+ydYKxAoxLEocRJZoABwXiRGia7CkHe87sKKFF/ioC0Y5vzgNWuRTbfKlW6+fPsr40t710+nx0ebZY5cvsae0oHMH7t/u6FcVUiNTBdEkVUD2/kZhBEEj+2tg7+mE9YEnttu2W+wVbmKxWX9z84Ghun09PHoNWAxpzTMeWEFYgP0S44sgCMFgkCRJCBeorlH7ZcBfJPWNQu4soee1ROnNtjtf9Xz4g2fDH+a9xtoXCOMExjlCIkYCRsC+D+wEtVorrV0hYLAk/kEYOUdKhhK6+Qk3F4m6YGCzaAss0fOYL93IfsF8aZOJndY/khHDr9M6z1hrUpcHow4XyI5UZIk7ngw06srwqEr357UETYOX31j8/i1Ox3t67Y2N+0YY64qbav5rt4gS8L9AzYTfUFlj1BNDAbLhzWX+k2+lJ95luf1l1/LVwd8PkDYnKwiML2L+0KOfEHSUyC5b6FgBA0MSGB4ansJaSeSLHB9cMlK09xfrLiUM+82xRdftMGAwXzBfUintsW2/iGKQopfstQ1f61CvD8ecu9CVS0fHj+KAkurnwQ6agnJyWpV1g94J3k8iSZIgUBRtIgN/uBzL6vfvdRJSjC8IMZAsiC8MRTVX/WpY/hO7vzlkdzIcJ8luPpaKmNY76i4nLCdyrV5b4LjNDCsxR4zS3iFGis5BUvN4v+5bOxyhRsXIxITBfMF8wXyJ1xSgQqJo8AYf22oeuM6dUwHmucQQg8anFWNJqciiPI76SpVUr/W+27fbG9whTp5PC7KXbQOGpuWXIrX2jpSdEaTYgiAwNM0wYNobIIsgCjzPR3hij2fvrRbTEMYxVJ7AAmyQJB2fxK4QcO7GDBZCnvwS89TI6QznWwaFW150siwYsACykWcqx0st2W/MF8wXzJd4zZC1QnBRkRVNnts2W8+odg2s8B23ntRUhGTQQPtFMVydSb+pEo1qU+rK8MhK98L9LmcIDAnB11dHp9fG5t2k0mGosdESg/n+4HJREAPWUO2zZu2IsKM0NgA0PDoInQQosEMEh6hjfagYU0RiKHDZ2EZw5hERw5l0ywyf8c6AZaWTib3066AyxAvvoN8wJhwiRe0MxoBr27B/F4kFBqBwJEnq+vEj7H+JuxeJPzvV/yKKFMO2OLw/6tz/riH+sslySgVRUu7tUxlSV4TVkBdghCgGmqiFohi6VtovyikzVVT+enLyBuc3Te4AWNN80AfaCEl1GB48KLZsSrDhiPFLV+2pTlsJ75AdumAmbuqxoeiEulabRR5aKhXtpaJtKG8axhjOpJuu9uge8lne95urnAFTkA5Rcr6y/XIQQ9L9wHzB9kuiliKStnf9dKqkuux4J/EFrlQE39HtFoKhcJ3d87XWtXCv444/3OM3eEZsCPYsD6grQtHZLvGUic2CUSIGdZHkyD3KA3/eZK+2+BgOvD4A9jmSYiWVBkPQ8Bxn3+RpvMZrLeHBoHJsvlwSvsB5ujF3r7wIQASrjQaLtlLeOILWn0npriObH3GYP/LZqr0+fZClohPb4bLIdhUPde6w/YLk1qYmYPtFubtF3P4vbUov2xE6hy/RrVCQnRDTb4HnwxTV4Av/YPAuqfPM/dV+zkbP8OpA3hqfqhyCRmHOKIkTF5bnxajXh/uvJl78w+II0jDHWD4Z/Q9LB16IEQjVPmapPzFgHwQWEEW7OTHKAIgo3SsowjCRKBFtxbxhaFh/Oqm7yt/8qMv4ice9JeQzkCMHhLsAACAASURBVFQY7CyFygHxlyAPdD5lACaC+YKE2aYCQFHi/hGkzNHJF6QuSKNaA3BhNBchKeaAK1hl8i+udd+02Ta1mhi2jihc41GvhzPxYr0k2WaJTp+BXaRKKmcdOWCN47wqx02bbCvqHV6KRURDWbcZQEhiSEb7DtF4o8tweVB3asg8KEKcJDriVgDA5UUQNINFolg0lFDa03za6Z7mBxwtH1vtmz0BfZgK0mAenfxprXIs1GaREiNgvuD+USqkQvP2WF0/rdCVmH4d/L+8opjnOC/FNnpCm43ud/daH9hOXLaRKF7nLFzrz6mAfpmoW1ddEc5fF+i71nlOFXHbb47/+8O6rtlR5yS9NMspLAVFthkFQZk4MUwwvv1B+3qv6Q2v/nZXy8Uu3eiQ+STOXgxcKmBsaKhkGyIArAyiG053G2b7dA+59B87rFucZEsoHKDYCAt6aLEVALCqoHeI/M0ZFSc+EuYL5gvmS7xWpPkNFeYg0sgaGIlEfBRj9oc3mTzv13ue/MN53RbnkApXj3KyRzl5/DrXuVXW+7fZXzvgWtPibHaRzhDNyFtSAZ2WU0AmdJrclaeQ/QIulLkQYTjaxfrrfbZ1TuOb3obbiYYLndphAVNpRDeErh3r1N3k1T/rNnzudO72ksYQHWBZTnavHIyVKFyUmXU0jPmC+YL50hHtQThQsAaYNCzHkyxn8pJbWzwLy/WPLDTe/4rp1R9NP++1aQmvj2HpiLyPnOzQRWZCB1Q66nkGV6IBKBDgeZ5juJArbN7nrPnO/P0zzQvnaT9+ULfpXZN+u4skSDbIcTwnx0QXyqkcmqmSVIiYL5gvmC9JVSP5QYSV1q4ED00QMM2N5dhwgPE2B/U/25tfcdbOdO+b5K85y193rb/hHw79N4R7XyBgD7EMy6Pt5GQ6dKAbgpAkT58RBfmdW4LAU2zERlK/G4j3dulv2mw9aw0x7Fv72J+cV/zifnqbqVLvaXD4A2FGBLteCqIogX32YFqKblprNZOLIdOjmC+YL5gvbWsL1BOFpQAmtok8mD4rSkKEZ0M+yl0fMPxI1L9obZztbTk9aBxDW4Zy9sFgupp1KG8ax5gnUfprgg2PEbpPCdt2d8AepFmal1rXDbZdjoQYYAYBOMgzLG3wkr9ZPe8fsM3bRpxdRQxa5+qxPpBbGdZUUppKOr8i/Kdy38m/BKdU21/cYapscdc5/WQoLHIRMHkYUCaJOdM6hpSQdSYHMF8wXzBf2taU2ANeni8bxYoYEVgyEHQd8Bn/62x6gWiY6W45NWwqZWxDwQZOxNDoLk1wXziwmVOpaB8mWkdyhlFU3RRX7SO25k+szl3eSBD0VuCn7aLEYqD4JBPZbPa9u8d80wbdhCqif7mnsDKYUwlmAIJxKziABbbyBNOONZV0TkWobwU5ZJ374krzgu2Gn5oc+51kMByWRD4Gmlhp0P8d7TphvmC+YL7EVFbxP1CMg5/nAg8205U/YjAUJOrcui/sTU/ZG692N40JGgdE7INkpsBJ9yNa57nBjRHgtBTHCHk0p1SyDxVtxULTYLLuGStpCcG8FPm3HYS6L0mS1Rf8c6UxbxWRJy9fADsEy9sDx/aIiK3JjI6Ug0325OXgtKYiXFBOnrDWdVGV9fkdlu+aXfWEl2FoSRTAusuY11kBmaiB03bhYjEwXzBfMF9i2hD7H2pU67BOdB6vSFGUfp/Z+F9346NE/ZVEw5CApQ/v6C/BJT9x203CnVbgBk5wRXJ0DWFsp1v7IKH5XK/xawcdYqAyx/LP7P9YKblIZPFe04A1DnUFZAea4xdbJwWsmFgYLuaWt6SJzTymVRWUao2/aK1jxgbLP363Lq0j6u0emqahZ0nZK2yVScZlhBusKbdZg5fi9UdJFQ8KB8+vO5rn17WOGfMCx/AsyVn22nUrHE2PufZfZmkc7TP0jThPkBxDJMdICaz3UWwNF8OKPGs2bl8VtAGCPLnWcCalf8MVcoBXEcPnPNLZuJ/oOIgpx0YqCmP6A8EXthqOX+dTgdenxBZ2R1dIxWb6Rc2WgzYnBzYOXEIFz66nVD97T1hNXLHRef9m09I95mbCQzIRlgfrKJXFyDCM7RdsvyTFKJzSfSyuPwIqIZsGHMN7Gv3a5Vbtw+6myzzNY/z6/oyjCOyH4hgpgX3hEFYAL+AeK8mwEqOM7IiBOyeIptGs9gGXp86Peh8okMZGgOqKYrYGRKGW8FxdZcgtD8S2woI2y8FwQYuholZM1DsT7UnJoJF7T4yqglb96Bm8xnn5BsffNpuX1zsMB7/+EfMFaogoigzDHB377+L106lQiI531voj8KwOmWn9AnfzJJ+hhLYPEJwnSc5hMlbgjpOxbQ1gryflHggILvLbhUBHaahoHcLqbvAQmzwMzcQ2WJChBhY6gk8a7YURohszKFwkNMf/0OKYWGHOXd/O3fbQPntokRR4EQLsajGq8rB6tWf4WuLNPTY+0u4XrWH7BdsvSDnjAvA5eiyuD5BNGDFABJvnE8YRYWdpbCNbtGiwdQlyRlvDyXtTyp7d4WClsvYst2GJmQ7QwK3LCwLHsSEqZLJ7tu4NWQgod2hDKW0ZhB6W4xo87h0elyMcDrJMbPBJdAfD7+wyjCknNBXhmBUjv6cJmS2ZBGD3KuYM1lTRmmr2hLXul/fYwBtmE7pyaVAYrYj8Dg3sf4GCitOxxJ8oGt7/RaVSHYXrG6NqLIgRLmL50dN0gddaetB2k9DDAhYlx2yTlAHkcIHGznBgvBgmhvULnKQ5yLMR1h8kjdbgln3k0nL3E+81T72P+KEazHnjgSGTCBd4MBAKvVGza0b9nucdpsVW429etz0Y9DIsE+GMbv+zOyxF5d7Y4BHamyZFRyk5cdDb4+R3VFbQ51YRW/QEeImj/EnPFOVZbL9g+yWRofAIbN7HqP0iK4Zg2+U8cJPFPJQB+x7If5liJbrTSmyTbfnViI5homk423A7Yd1kDOrM/k013sWrPA8v8k17hi79K9erzFvwZ99XawBXZL5AZWblD8KNKIpekpy/d1d/ormP39TPXH+FpflJwvCqw/qrx9Xk864zgGGgwnIyOjwUdffGnL7JgZKMPlEThtas8d+y0eT1k0reKSGSJoz5gvmC+RKvIOgp7XcGml6w60aGwJaRcucopakCbRm0IxzaZgVsvwJ2WrGW8oYRwX2n1B54bL395a8Cf3vbf9nTwSF3cMfNFnJuFNWzJNUsMn96YMU6JV9omnbJH4qC28eBk16S/L/9u4vcejVlV4esuUFLD5+xv1M3zd7yV4v2n0bdX7fXF681qssDYGfy6ChSbNAaOlkypAxwzTD91rrf/F0PXpDSzs4R7h+p1WrMF8yXlHzhOM64wtVwtsdWyoNXpsJNJ+O7RbJjBZIlNqIkvyUevL/ZOkgwjmJaxpLNf/btv/j35pNe8ZzyYGjIHWxBmagBWIm+3VVdJqnKAgfzBb4i1uVyueUPy7KALjJfFuzbXeTSAb7Ir5eFAU3Qku/RD3S2jGqpK9m+b3xVy6RKx5AKb/56EsxwiTIlBhrkZ0Ebd8ZBR361tmo9deo62/YWG2RLO7tH0XH3NPtLLV68uEePHsoty2A4S++HNRgM999/f6r3w77wwgvwpc6wQaRSDHQcRmMY5qOPPiopKUn6rsUjii9arfbaa68tKChQq9VKmavV6uLi4tdee40kgZWqdJahynZ64NjtHyk7Aq59Pv3NPnspL/ePpOi7PqKOFfnN8DFTpdW0GSI5BkqWEZGW0wJNV3p0j3ta3rW3LG/QXfNWKHeupLpRBK9bjL4xWlKVwZfSS6rZcXzx+/0OhwP2j9xut8/nB++ZlyQvSS7YV1Pk0oGXzEZfX22TA3ZVWD5CWors2ttq65YdML6xx/aXrY4pm30Dy12a9SE4uzcFa5RD2qA/pa6mNWv9ZRUtXjIMnS+w8WX+3Wb/6PXXX8/JyVG2dcSXG264oba2FuV1iO0bpmM0Gh988ME+ffok5qhSqZ577jmKotDAc/ocUcFomn7vvfeKi4uT8mXOnA6+H3b79u3jxo1PmuYZZ5zx3XffUfJ265mwABYVv386/Q3N5GznjE8r+UL5afM/fKZhDJyDG+0lKayVKFaGSY5S0XGSZDyRaRrn1c5wG57wGZc6rZvsYQNNEgHb+yt9pbeKqlkiAAr8my2qZsugmQ1f8yrzZS3sH4VCIYfDEQqFYOMIBsHPYDAoRO0XBV8gZZSsoewFQcuZlsaPTboWX6DBHdxo8r2+j/jbTt/kaqLXGpdqXRCABo5Mg8UEyA0cG2+C72OpYv5U7ntnR0uE6+AizDR8gfV64YUXElVIpVJpNJobb7yxrq4OqXEmtz9NHJiO2Wx+4okn+vXrF/cAh7h55JFHfD5/hnxB0SiKeu2114qKihIrolarb775lsbGJiiHdrGgpqZm4sSJiWmqVKoxY8Z89tlnqG2kqTU8hWRYV1c3ffr0/Pz8uOqr1eqSkpK33norGAzCyG2meegRsP0iazrHW77y6M8miSEChAucVhfFylB51eJg0TQoUj/B23i9s+Uxp+Ejp/U3sOc+E2AjLBvheXf1tuAFD/I5M2WyAKxAskiAL8B+UfJFFMUIwxAE4feD2XfwfvM87/f7nU4nwzA+klywH/SPovaL/O5qEFYiJmwr8BkvMzWud9qpCMtynIdiTQGqUud8vc57/w7nZZWWgT9a89b6NVG4ABevEjRgot16asQ65+8mlzxuFO3soMaaSSANXyRJIknyoYceSqpChYWFt99+e3Nzc2c1d5iO3W5//vnnBwwYEKdgkC833nijwWCU33kXFXsqLVLW3e/3P/bYYz179ky0iTQazd1332MymTKvBYqp1WonTZoEURuX8oABA1599VWfz4eKkaqcCIJQmTds2HD++efn5ubGVV+tVg8fPvyjjz7K3CZKk2OGp45pvsDKg/kpouA44Dbc4LeXCMQI8L5Ux3DJOUSyl4i2Abx5YKR5XLDuRkL3osv6tZfY6SGtQZaMcBF5VgovCJJENpg8180XCm6AZgvsGUGyyFg5iC/k1+s4UbKaLW63G86eRm0IumP8fr/H51+w/2D7JQViert195m1zaRfno8HAMFEOD/LW/3BbSb3sjriia2WqVW2/j8TheUk6D3Jbho1BE01rSknry9v8YRo+GbYqExQgTIIJPIFXgSrduDAgWnTpsUpD/xZVFT09NPPWCwWGD/DJpsmGkzH5/MtWrSotLQ0TsFgpqNHj968ebOSL0ktjrh6NzU1zZhxlUajSUyzR48ezzzzjNPpRJekKSE8herr8XimTJmSyBe1Wt2zZ8/77rtPr9cnijcxfZQgy7KLFy8ePHhwYjk1Gs348eO///57lmUTU8jSEcwX6M0Uwh6q5SGXsZR2DhaJQaJlIGceyDSNCtRf5zww30CsDngOkCF3mKN5Ac51g7NwwXiLGHJ6LA8tZHvOle2UqKslZrAAn67SfiHzpwe/WU+yjMNOwDuN2jdsJQzDuN1us80O/LvuZPbLwVaMOmwrdbS8bTO4qTAcFIu9kU3geIFiOcIf2kUEvm0g/v6b8dw1hoFrXIXlJHjfNgAN27c8sGiHlmUZMCWnva5ducRxCgCrA78jkciHH37Yr1+/RL7Ax+nixYt9Pi9Sj0Ns5UiAK1euHDdunFr+xGVdUFDw8ssvh0Ih+NhHD39l1qg8UD0EQVi+fPnQoUOTWmHFxYMWLVocCASQHJRJpQpD+VAUddddd+Xm5sYVEhLn/PPPLy8vR97oNEVFBdZqtfPmzevVq1ciX3Jycs4///ytW7e2q5ypyp/h8WOdL+hxzUd400qX9vSA6USmZVSw7mrX7gVN+rW2kIEhvSHgc5UXWAu83I2QbxG8TzTLmJeuIk+aI/t0o3ZKHFyg/0UEoAH+XcenP5hdTjocVrYYpJbgbSQU1aTT/X3HluNR/yhsi3aOEq0Yyq4JWkZbm7922CnF7NvoGyNhUUWRjURcZPgA4fuxwf7Qb6az1puHlTvzyv2DfrbttAUkeY7xofMF1QIaL/v377/66qs1Gk2i/qjV6jPPPHP16tWRSASpR4atNlU0mI4oitu3b7/kkkuS5qtSqc4666zffvsNmTDoLqDCo3RgLZqamm+4YWaq1M4+++w1a9bQdPRlL6nKpjyO6stx3IcffnjCCSckkkutVvfr1++pp54yGo2wpaFSKQuMDsJm88knn4wZMyZpUXv27HnTTTfp9Xqk88oiZSmM8lq5cmWvXr0Sm8HROX9XeVfAzZP/ORu8tU9a6/7Poq+wBm1hKkxzIgfkLkoi36p/8Fr5KjDv372pJnjmg5J6pqSeAx0ukCPQbIE+l5hHBhgyodwZ5ve+DkZYKeZ2gc1F+S2KopVwPLl9Sz9nS6v/JRExaFyJsqtJ83Rz8y6Pm1NM25PvLgAi7DrJb7IWeZ7zU4zFH9rYbHtiu/HBTc1WEoyndGzxNAK0stFDfTCZTI8++liqVtWzZ885c+bs27cP3YtOaeIwNYPB8Mgjj6Ry8ebl5c2bN6+hoQGWOU57UXkgXAiCePLJp1KNRmk0mjlz5tbW1qFEMqkFykKSpN27d48ZMyaRL1AVR40a9e6773o8HiRndG1cIBKJVFdXT5s2rbCwMKkaDxx44uuvvx4IBFBLy6SohxgH8yVqj4iiyEU40htkaRbQRt5mKrp0KNZrQG0IBGQ6hHSWwKyXhTzowQXmSQJcYHdJdveqyyT1TOOAWZZVG+Er69EDE91F2GgkSWLC1BdNDSWENjoaDeGSiBjk7qXsx3kNj+jrnWEwGgWLCsuJwrAeYD9ekD2IQ7FsiGbkWXVQDnGNto2fKGUYD5k/PM9rtdqnn366qKgo0VCHulRaWvrmm2+63W6UBxJChwMoqXA4/Pnnn5988slJc1epVH369Lnnnnv279/PcRwUF6yLMiwIgtFofOaZZ6B9kVRpS0pK3njjDY/Hgy7PsPCwqJIk+f3+efPmJe0iwV7ShAkT3nvvPYIgwOzH2EcpcEEQwuHwhg0bZs6cmWrWT05OzqRJk3799VckogzLeYjRMF+id0recwU84MFHsakdFBA8GI0aU1PS6Xa9/BlTPE9SR7GSCBfokYHcEVWzmEG3/vHgv1sampRPe+UthFlIkhSh6V3N2jv1DX09ehUFZ77EvpVdpJgvRi2DZoCt6S1DS1CepJdM+aMwhRYNHD6R5CrHRYbFyPAbtnme5yORCE3Tdrt97dq1d9xxRyq4qFSqwsLCq666asuWLVC9IWeVcuhwGJW5trY2lScCAq5v377XX3/9ihUrjEYjRVEsGH8DH1gLh8NRXl5+xx13pLJcVCpVXl6eXIvfOtDFQ+UUBGHt2rUjR45UqYC7KCnFhg4d+tRTT/32229+v59hmEgkAsvJMEwwGGxsbFqyZMmll16aylRUqVR9+/Z96qm/OxzACQ3vdYcl3K4LMV/kGy33j2LPhuj/sAWg5xKUFDwnCgJHs84v1/jH/lWe+B+1XBLcLvC4TB91GV0403XHq41bfrfZ7Kh5Jd4tqGwUTdst1v122xxDQyFpVsM5ddBaieNLzLQBiAmYT9YdqCJscPEkKK2MFJQdqlRiZZU1jYuf6idKhCTJmpqan3/++YMPPnjggQdOP/30VFY6fCYPHz584cKFXm+rZ7ezEIOKGgqFli1bNm7cuKTOCKjGeXl5o0aNmjdv3ttvv71q1aqNGzdu2rRp9erVS5YseeCBByZOnJjKrICEGjFixMKFC5UmWOa1gDHht9PpfPDBhwoLk0xxRrg57rjjLrzwwqeffnrZsmVr167dtGlTVVX1N99889JLL82cOXPIkNKkMxjh5dCzu3nzZiSczMuZ2D7bdQTzpVXmSFsQSlrPydSXI8ghjvNv2uO5/O+RghslNfLpRoeKknhe1GV83qzAZU+Tv9TotDqL2YLsl8S7Be89TdMWq5UKBjdYzZPMjaqQFa4SaHXHKCkTQ4yKsueTlpv0DS1uF6pFm+BoM4JSDsowklhTU9PDDz986qmnFhcX5+XlIa1IDKjV6j59+sydO3fXrl3KfBPl0LEjSG9FUWxqarr77rtTeWFQ2TQazfHHHz9u3Phzzz3v/PMnT5w4sbi4OA1Z4IW9evW66aabdu/ezfPRl+22V2mRJHme37hx47nnnps4aQUVEgby8/OHDRt2+umnT548+eyzzx49enQa8wpdW1RU9J///Mfv96Mc21vUjt0L5N46FtdPK2WdSTimSyLP8yGdyffIIur4ueJBcIEz6NCAdGygWl0m5M4iJ9zt/mwNFwwb9AaLJTO+WCwMw1Asu9CkG2BrjK4SQH0lJV9iXhjAIMre29H8pL7RTlNosaJSkzOpbOZxoFhqa2uvv/76NJYCausFBQUXXnjhypUrw2GwZyj6dLgFJ16I0mQYZv369dOnTz/uuONSdT1QwdoVyM/PP++887/55hu0lgdmmliYNEeUKPR6ve++++6YMWOSjqnDsnWgCmq1ulevXrfeeiucJI2aQZpSde4pbL+g1thGANwb2adLO73et76lx/xNzEFuFzhV9yD7BS44ElVlgurGUPGtnvmfhk12kRcMBmOGfLFarTRNi6JoD5KPG5v7eQytxkuiozc2liQvg7Qeb6lfZDVQkUgUMVHTq406duA0bLINDQ1z5szJy8tLowNqtTonJ2fcuHEffPABHBBBCtbpbRqZhyRJfvfdd1OnTu3Ro0easiEFTqPeCEB5eXmnnnrqO+8sIgiHUmIdqAW6HPqSn3vuX4MGlbRZBhghk+r06NHjqquu2rp1q9LI6jLjBdsv6P62EYBwAVNjyZD3vxvJ85/k82eLslsXjj0r+kSQMhA9wIRh+8x13/IKubuRj3CSKLaLLwwD3jogCkKd21Vmbirwm6AftxU0SitGiZig5WJr82aHLRJDDDQ02qhn+08jvpSVlaXvU+Tl5Z1yyikvvfSS1WpV5tMBtWzzEkQusBLd6/3iiy8uuuiinj17tqmTCCKpAnl5eePHj3/llVcMhiTTUtosWFwEZTk5jqurq3/yySeHDBmSxpmSqmCJx/v27Tt9+vTy8vJIJIKA25VwwXxRtvPk4Wi3SPaSRljWs22vc/Z89rg5sSktaJGR0ngBcIHrj/ges/3TnvaXb4tQYP6VJErt5QvAC9iLil9tM080N6iCltiItbyKWsmXWC8J9KQo+3E+wxxD4x4vGDpFn+SVPISjmfBFrVYXFhZOnjx58eLFcLZYtpt7XIXcbve333775z//uXfv3h1GDJyzf84557711tt6PdgrB+YCB+DiwJH5TyViIpFIbW3t888/P2HChDQO8kSUKI/ACg4YMOCWW26prq5WLhbvYrhgvsS1wyQ/kWYKvBBsMrmeWkKdNE+xQhqsjVYaL7FuEUCMoJkdmni/9+OfGI8PpiNJHeKL3C/zhEOvW/WDHFpVyBrzxcjLHeMQA3+GbeqwrZ9L94Sx2RKUd6WLjU0nqeQhHErDF9jQc3JyTjzxxKuvvnrlypVoqAXxJXM9bG9MWCeUEUmS5eXrb7755tLS0vQeaKWuomlvOTk5xcXF11133ZdffmW3E7DWKIv2li0uvlL8HMfpdLr3339/2rRp/fv3R4ZMm1hEEXr27Dlq1KjHH398586dLAt2a0cIi8u3C35i/4vy5iYPw8bEegL+xT9Ro+8VNfJkudYl0UktlzJJdSM94Fb3Ux+FdBb4/gA4H7Qj9ksMctogeZepqbdbD/pHyFqJ4wvsJcluYE3IerK9eZndFGJoNKcneSU7ehTxJan/pX///hdddNGCBQu2bt2q3GoA5pbt9o1ygQGapmtqat5+++0ZM2YMGjRI6Y1GHg0UUFKmqKho6tSpCxYs2LIFzECJzbsGqXZWFWAJ4TfP806ns7Ky8qmnnjrnnHP+9Kc/pSmqspwFBQXDhg2bM2fOxx9/3NzcrJyVA1PurNJmng7iy/fffw/n/iEJo8BZZ51VWVmJJJB54lmK2Wn7v6AqpQrE9Fpgw5RnzRbf1KeEPLSrC5jborRc4CIj9B3pXeaZ86J3+36OjcRMB/BK1o7xBd4nluc3e11XmBtzvAbYCYr2lZIgJrorVSFpvsymXe92MBwHi5Gqsh07DkWkHD/Kycnp27fvyJEjL7vs8ueff766eoPD4VDOo4MZZalxxCWL8oIBjuM8Hs+OHTtee+21GTNmjB079vjjj0/qNoK1GDVq9LRpVzz33HPV1dV2ux1pbCeSBRU4Tv40Tev1+h9++OHRRx+96KKLSktLk+4OAaf5nXjiiRMnTiwrK3vvvfdqamr8fr+i+wYmUKJcujiA+LJy5cpUc4vPOOOM8vJyVP0uLmFidl3HFygdQRD8Zpv56XfpfrEh5+iWLuAnQoyyZ8TlzPac/Yj7h1/YMAVGnWKgOkS+CIJAMuzXdvMZ1iZ10NJqwiiHk4D9YkdTftVhWx+i+Z6WBrti3QC6l4cYiFVLaGpqgmowY8aMefPmPfvss59++umOHb8TBFgjjnJBvZXEm5q9IzB3lLW8sTrvdrv/t/BnxYoV8+fPv/3226+66qqpU6decMEFkydPnjLloiuvvPKWW2559tlnly1b9scfO+Nqkb3uBhIUDMCJ/yaT6Zdffnnvvfcef/zxuXPnTps2bcqUKReAz4WXXnrptddee+edd77yyis//PBDbW2tz+dDKM9eOTO/WYgv1dXVl1562eTJF8h/k2OfC84///y//OUvW7ZsQXXPPPEsxexqvoiCQHl8jhXr3Zf+PdxDiZioHxfaLHBxAPymS+5w/mcF5fIp4XKI/SN4q3hBIKjwf8wtJ9maol6YaIcoto1mrN8ER5r6uHXXmZq+sJr88lC30nGA7miHA4gvJBnYs2fPli1b9u7dYzQa3W53MBhUNnTU1g/LsxRWUIkYsNyM48LhkuWs/gAABnlJREFUsMfjMZlM+/bt27p16y+//LJx48Zff/119+4avV7vcrlCoRAyBOKklKXGHVdI+aaLLMuSJOl0OltaWnbu3Ll58+aNG3/ZtGnT9u3ba2trzWazz+cDrxKPuZyVRc1eOTNJGUmeIIhNmzZt2LAx7rNhw8YdO3YoHXOZJJvVOF3HF6iNQIt4ngkEXb/sst39erjkFlENp+3GLQuQx5LUZZG+c1z3vBFoNsL1aMh4ORS+QLjAb47n9/m8cw0NuW7dQYiBVgyyZULWPkTzg7r6vR5XmAOb1siwU7a9zglDyshrd7hUTRy1s6y2jPSJJ60tvMU8L8AVPRHwAbWIoTPJRelz6ZSzibmipgjXecnlBKuQYuWM7sWH5HxYOJ6q7rDdwjInfsNawGuPhGJ3HV+UWg0gw3Gk3uJ480v/uL9yOTNjqxbh9rqyXaMu4/JnOS5/wrllN8ejrWLgFBbQEg69fwSLxHBclcN2saleEzC1+nplny40WzRByxh97X8MWitJ8nzrKxmVvsnERtzeI6jRp7oQPY1TtbyuP660pFIVO/E4rEgXlzaxGG0eOSzlTCMWWGDUDDIpf5rUuuZUV/NFfvLDLWKAerKhsOfnzcT0vzO9ZoE9paJLBGaL6jJBPctbMs/5eTmfsFc2fM4cCl8gWdDzKkhTnxOWcS59dF2S3EsCcKHsKqd2jq5uq4sIMYwoSXxsySzEQZv3uL0RYLJxbehIa+iJTTMT0BwhtcikqEfCkz+pkDMsPCJRYiJdfKRL+YK0Gi4OgLrER3h3bTPx5Nt08S1izix5iSPoK7F/mut66XMqAPZnhzGRSncKX0CycjlAaqJoCJIPG5v6ObRqebaLKmzLCVoGOnX3WHRWMiDJG71AQ7+1Fu2FRwbxYR2PEFXs4raIszv6JNDVfIEqBgGBhngFUfTZCM87PwQmPRLpCd6gxvee47jnP94WI1DmWAceqWdn8UVJLp7nd3hc15gaCn1GTdhW6NFfbG3+0mbysgzYj04uq2x3RV1AqDCdG8B8Ofp07Fiu0eHhC6IMHBKC9glHM87yra7b/i98/A3+KU96a+rQTjIgvsLb0Zl8geCQC0RF2JUu22Rr0wh78+3m5l/dTlrezrbVbFFE7lysoNQwX45lbTz66n44+RKlhkwLiA9eEDxaPbHgE+8XlREWbFUN9Q1+K5XwEP27KCmYRdSeEkVHOPy1zfSpxaADryiJvkAalSGuGMpEOisMs8D9o6NP047NGh1uvsQME6ThAs9ToRBD0XEbayoVOEP7BV4iSRJN01arFb6bIikjlAShWJZmWZCFTDd0SlmA7IVhdpgvx6Y2Hn21PgL4gpRVxgbqByHFhgEUC1kcsfEjK9RGZQRlOEO+QGahmQ/wJ8grZkMp08xeGPPl6NOxY7lGRxBflEBpVW+F2wVpNTwL+WI2WxIBhGLCAEVRFosF7i+VKnKUL4r/EMjiUsvqT8yXY1kbj766H0F8QXor6zj6lSSg4IupsbHJ4/F4U398Pp/NZmtsbISbSKbiizKbVitGebRLwpgvR5+OHcs1OhL50qYiQ77I26n5zGaL0+l0pf643W673W4ymdL4X9rMscsiYL4cy9p49NW9W/IFaru8kkmQX18D1+uk/IbLNBCVugwWHcgI8+Xo07FjuUbdlS+ZdHPi1Bte0oEL49LJ6k/Ml2NZG4++undXvkDna7tU/QgnC6wL5svRp2PHco26MV/aBZfuEhnz5VjWxqOv7pgvRxZ5MF+OPh07lmuE+YL5ciy3f1z37EoA8wXzJbstDKd+LEsA8wXz5Vhu/7ju2ZVAO/gC54/g72xLAO1Rlt07j1PHEsi+BDLly5H1lD/aS5P9+45zwBLoCgm0wZcjcyPSrhDMYc0Di/2wih9n3mkSaIMvMJ+j3Vw4surXafcWJ4QlcLglkBFfDnchcf5YAlgC3VICmC/d8rbhQmMJdAsJYL50i9uEC4kl0C0lgPnSLW8bLjSWQLeQAOZLt7hNuJBYAt1SApgv3fK24UJjCXQLCWC+dIvbhAuJJdAtJYD50i1vGy40lkC3kADmS7e4TbiQWALdUgKYL93ytuFCYwl0CwlgvnSL24QLiSXQLSWA+dItbxsuNJZAt5AA5ku3uE24kFgC3VICmC/d8rbhQmMJdAsJYL50i9uEC4kl0C0lgPnSLW8bLjSWQLeQAOZLt7hNuJBYAt1SAv8PWjTJUPHz5uIAAAAASUVORK5CYII=;strokeWidth=1;" parent="1" vertex="1">
          <mxGeometry x="445.57" y="357.89000000000004" width="118.86" height="50.35" as="geometry" />
        </mxCell>
        <mxCell id="1F9SLgFvnqWuvNnv6nxa-10" value="" style="rounded=0;whiteSpace=wrap;html=1;fillColor=none;" parent="1" vertex="1">
          <mxGeometry x="448.43" y="357.89" width="116" height="48" as="geometry" />
        </mxCell>
        <mxCell id="1F9SLgFvnqWuvNnv6nxa-12" value="&lt;b&gt;&lt;font style=&quot;font-size: 14px;&quot;&gt;Autorisation&lt;/font&gt;&lt;/b&gt;" style="text;html=1;align=center;verticalAlign=middle;whiteSpace=wrap;rounded=0;rotation=-90;" parent="1" vertex="1">
          <mxGeometry x="445" y="183.74" width="120" height="30" as="geometry" />
        </mxCell>
        <mxCell id="1F9SLgFvnqWuvNnv6nxa-14" value="&lt;b&gt;&lt;font style=&quot;font-size: 14px;&quot;&gt;Service&lt;/font&gt;&lt;/b&gt;" style="text;html=1;align=center;verticalAlign=middle;whiteSpace=wrap;rounded=0;" parent="1" vertex="1">
          <mxGeometry x="570.57" y="118.73999999999997" width="60" height="30" as="geometry" />
        </mxCell>
        <mxCell id="1F9SLgFvnqWuvNnv6nxa-16" value="&lt;b&gt;&lt;font style=&quot;font-size: 14px;&quot;&gt;Métier&lt;/font&gt;&lt;/b&gt;" style="text;html=1;align=center;verticalAlign=middle;whiteSpace=wrap;rounded=0;" parent="1" vertex="1">
          <mxGeometry x="706.1400000000001" y="119.99999999999999" width="60" height="30" as="geometry" />
        </mxCell>
        <mxCell id="1F9SLgFvnqWuvNnv6nxa-18" value="&lt;b&gt;&lt;font style=&quot;font-size: 14px;&quot;&gt;Pérsistance&lt;/font&gt;&lt;/b&gt;" style="text;html=1;align=center;verticalAlign=middle;whiteSpace=wrap;rounded=0;" parent="1" vertex="1">
          <mxGeometry x="839.43" y="128.01999999999998" width="60" height="30" as="geometry" />
        </mxCell>
        <mxCell id="1F9SLgFvnqWuvNnv6nxa-19" value="" style="shape=image;verticalLabelPosition=bottom;labelBackgroundColor=default;verticalAlign=top;aspect=fixed;imageAspect=0;image=https://www.linuxtricks.fr/upload/postgresql-logo.png;" parent="1" vertex="1">
          <mxGeometry x="1000" y="158.02" width="166.33" height="76.35" as="geometry" />
        </mxCell>
        <mxCell id="1F9SLgFvnqWuvNnv6nxa-20" value="&lt;b&gt;service REST&lt;/b&gt;" style="rounded=0;whiteSpace=wrap;html=1;fillColor=none;" parent="1" vertex="1">
          <mxGeometry x="565.57" y="162.18" width="70" height="33.25" as="geometry" />
        </mxCell>
        <mxCell id="1F9SLgFvnqWuvNnv6nxa-21" value="&lt;b&gt;Entités&lt;/b&gt;" style="rounded=0;whiteSpace=wrap;html=1;fillColor=none;" parent="1" vertex="1">
          <mxGeometry x="701.1400000000001" y="161.6" width="70" height="34.71" as="geometry" />
        </mxCell>
        <mxCell id="1F9SLgFvnqWuvNnv6nxa-22" value="&lt;b&gt;Logique métier&lt;/b&gt;" style="rounded=0;whiteSpace=wrap;html=1;fillColor=none;" parent="1" vertex="1">
          <mxGeometry x="701.1400000000001" y="211.91000000000005" width="70" height="34.71" as="geometry" />
        </mxCell>
        <mxCell id="1F9SLgFvnqWuvNnv6nxa-23" value="&lt;b&gt; ORM&lt;/b&gt;" style="rounded=0;whiteSpace=wrap;html=1;fillColor=none;" parent="1" vertex="1">
          <mxGeometry x="829.43" y="161.89000000000001" width="80" height="34.71" as="geometry" />
        </mxCell>
        <mxCell id="1F9SLgFvnqWuvNnv6nxa-25" value="" style="shape=image;verticalLabelPosition=bottom;labelBackgroundColor=default;verticalAlign=top;aspect=fixed;imageAspect=0;image=https://flask.palletsprojects.com/en/3.0.x/_images/flask-horizontal.png;" parent="1" vertex="1">
          <mxGeometry x="602.5" width="236.93" height="76.67" as="geometry" />
        </mxCell>
        <mxCell id="1F9SLgFvnqWuvNnv6nxa-26" value="" style="shape=image;verticalLabelPosition=bottom;labelBackgroundColor=default;verticalAlign=top;aspect=fixed;imageAspect=0;image=data:image/png,iVBORw0KGgoAAAANSUhEUgAAATcAAAD+CAIAAADQ0NWtAAAgAElEQVR4AexdB1wTyfdfOkpRBFQExC4CCqioZ6+nYu+e5ezlbD+7Zzv17P1sZzs5z7OdvTfsvTdEkwABEiABAgFCerLzv7e7CSGUBA9E/M988oFkd3Zm9rvz3ffmzZs3BPq2kkCNLkjQ/BTUMwENSkT/S0Zb0tE5CUrVfOZ9kgjFqdA/WWh1GhojQKF8NCARrRGhy9lIoP7MMvFlGIEiIUAUKfdXnvmhDHXno0axqCIHESxkyUKOHOQZjRrGoklCdEmCFGQR7kCLEF+N/shAgxNRAy6qEo1s2FAswUJVo1FwLJqbgpIxUYuAKM76mQh8Oyy9K0Vt4hkW0Vwy/OvEAfb+nIoey8xCKlOLwih+1o5B9jpyGhZowUIe0Whp6udLabPagTNhBBD6Rlh6W4o68JAVRSefGNSX0nWnJ6POPJCl1jqauUahkDigX+GJrUQzkpGen7ZsVI+LevHRT0K0MAWNTkKtqNeBJQv5xKCNaUhWFBFdeNX4LEYgLwLfCEtnJSMHnZa7LwNFKkFZ5anRWwW6lI3mpKCaMaAA08KwLrcwat2Voq58RmemldupQnQlG31QwABVoEbRKvRSDgNUgoWsWKgtD71W5AUWH8EIFBsC3wJLI5WoRTxDwolCJNbmQkdNogQ1OitBowQwTCVYyIKFvKKBuom5R5UkQiezULM4RvbasVF7HtqfAeRU5ZGWbxQw3CVYIKv3mhLOuRqEf2AEiojAt8DS3WIYIhIsVI4NEi/fJCdRjAodyED+XIaoLlFgs2UpmeypGrQ9HcauVpTItWODwemdAmXm5ry+cBWJJgqhKBs2GicoMJs+P/6CEfhsBMo8S0mExgoY62vLeKTOI/QMoZFowXrUNA7YRbCQMwcNS0Jv5ChNg9akoToxDEUd2WhJKojQQpIWoWOZTDmt4tFT84xShRSIT2EECkKgzLNUQaL+iQxb1qYVdJs5x7UIPZej1jprsBNF1NkpqC6XoWgDLtqXgYRmzK+ylYwMbxSLrmbnVIG/YQSKF4Eyz9JMLeqdwLD0ZJZZ4NBE/SGJucqJgypFMWPRkDh0MxtlFaDlGpUuUDNiuQEXnZcYncQ/MQLFhkCZZ2mKBjwZaA32nNlU0ZAwgp0oYC6kLw+ORbelSFmozmwIfLIGdeRBCXW5YHbCCSNQQgiUeZby1ahL0VmKEMrWot1iVIGy+tIsHZmEks1QdPVPIlUDk6gEC9WIQUcy9YfxF4xAMSNQ5lkapQR/hiLLUoSeylHL+ByHB4KF3KPAWdd8FwWRBg2hhsRe0ehPPBlTzD0TF5eDQJlnqUiDeuhk6d9mCzSRBg1PQraUT5JHNKocxfDcPaoIUjFdA+ZlgoW8Y9BBs6vOwR5/wwiYh0CZZ6kGoRFJjHl2jcism1aRaLWI8XCoFo02pYGFtpluesaXW+Ckq1HpqRrUhzJc1eei03hcaoQO/ll8CJR5liKE5qUwlJsgNAuYsxLkSgnP8hwQhjwVWIwuSMAIRDv9DUxEcjPMvHobb3Asuik1q2qcCSPwGQh8Cyzdms6orN/zTSPAUYKDEWPUjUP3ZYg2GMlItCUNpmQIFirPRuvNmHrlqVE1yuepdTzMweKEESghBL4Flv6TBVZWmBGJMYGSmkQ/JjEWo2rR4DBouOI0UwuilR6sekWDdC08cZSMpt2Vj9g6T8PCL8FnMQKfgcC3wNKHMuRHKavWbBMIbE0Hr0CCBQtoZiWDDyBXBc66bxRAs0Q1+qRgJK0lCzWLRx8K5h6J0F0pI5P7JSJBUaZwTLQSn8YI5EbgW2CpQI2a62w/Lww0TxKBg+4zOTqaiX4VgaXHLQoWxNCDz4oc5B0NK1o8qE+1aFgo4x2ds+bblo2axAGZd4tRuBT4bOjwoEEQxoHWnEckFWH+Jjf++BdGwDQC3wJLtQgN1U2rLE8FTi5IhehEQbFAwspRyCUKOXFAlaUpSlPLnL9WbFSeA54PblFA5rpc1IWHJgvR5jT0TAZLamAQy4EwS2Y7LJl+JPocbCV6IjPxKUTa68vBX8o6At8CS0UaYE55SpV15MAC7vIUJ/XLvs0hpDl5LKh1auXYwHm3KOSgm279XVwi3WC0AGpxLfTjHgUWrMBYNDMZ3cd25hJ5DqVfaBlmaaoGxOaPSSDiyhUqJytwkJ0uqErNGIgAuDkd7RTDCu9DmRAf8EQWODOEZYBy+1s6GHjHCxnV14oN0zz6y/OS2ZJaUz4wEe0Sw3LzYkz9E80V/pbU2lqPaIiZiEfIxfgIvpKiyiRLs7ToeCb6ng/8yavHWlPjydFJaF0axPh8r4CwDLTRiGCB+4GchI+C+ihJiMOgImHMqaSO0GdTNBD6iOZko1gg810Z2iOGYWp3fi7vXzr4gw0bLFL+sTB5+0xmYpmrmc/efJbS7bRggZAfmYQ+FWz0MrPqrzybFsEUWp8E+PwqMmuZ4Vd+R4U3r4yxVE1CbJReCUAJfcwxuo/SYTgtWGilCJaeSbXAQzWJrmejxnGMUBonRFLzRpAkgjAOjSmjlBULjRagWMp6JCORRAtBW0J09ipD6WrJAqnrxEE/JEE7/2PSs9Q9Cm1Lh5kho8/RTIiWNiSJceqgW+LIQb+konQzvDL+Y/NK8XItAg3Img2fXglg2Pu2U1li6VsFGpgIyq0hP+tzIbQfWIxSQEe1YMEYVZ/4apAt9AC1Lhd9VBTBzCPRgvMgbXDyjkbHs3KiH6VooBkEFexzuQitTYMlbE4Gy2us2ZChf+J/8nbQs7R6DMRDU1MvHaO/ChLMy5+UENlQ/76ozwWj9DecNAaBMkL5ECvn205lhqX7MiBuNR2UiLastuOBChpHiTgNCcHmaZ7U5qIk3fjwlIRxeCBYaJUIVqsVKbGV8KqmddpufAhNSKejulgqDbigUatIkN63pBAAifY9pAljRQ1ZTQYWLahJepb6xEDYl0ISieCWp1NxmOjWzkou2iq8Qgr/Ck9hln51D+WDAlyC6PB/ND+HJ0GgeokWnPv0CqxEixpSvg3OHBhGIoSilWiozgDThQ8ROvOmDC16JUf3ZJDZcDqUzqlBMLL1ptwALVlgWKJ5TsdwsWWDZqtvgBYBXd8r0HIRTL3SRLVgwTzQ0tS8NZs+Yj5LEYXDYxnEDabrbcNDEQUEajNd8VefA7P063pEH5XoO10UT4KKUn0wMxc5DZu7KAX6qA0bVqUhBCtdqlOegxU56HBmLmdAhMDkMC8F6EQPb6zZEC70WKYxV/+N60svTyNYqBsfhkAv5UzsX5eofBaskQj9O3/LUjKzqTRnynMg3FlRU5FYiqj9Msbpok/4RKNH327ANMzSovalEsyfooEZEXoESLAg3h9HmSO78lb8RM5Iklox6IwE9E+aJP0TUJROWaWv4qlQO14+8xwWLPRzinHBl7KRLyWjLFjoYAYYbGyoAXBAbGHWRRLBaDlY59nfOK7I62aKytJMLRg86VsmWIUFTBNrwRA1IglsYOXYyIUD4+qfhOhOUUazchIMrQtSIIB4NWowAm6VcWh6MrpRxFhtcSq0IQ3KaRILRoQ6XAhc/u+WXC/z6PnbxWiFCLSVQbqQdHW5MFe8QsR8zAkrZ/yAv/rfX++4VEmChqlfnz0rGWn0ymXBsLan4jZUigI7U01KkLpHgSA1jAAqI0Eq6ntz3i/b0nNVwFdDh6azdeODAmzBAgm8zIzlrHw1hN6mr+2VkDOyzVVBAT+KylKEQLbrbyffsIbZWkCDfunoc+q/2LKBHoZelvk2TUXxszu/wGlkezb4fr03Q+WOUwHP9U9Z3xL6iwMH5sP1MZMRQrWoZ2qUzfDnWzMqzfemvuaDXy9L70qZ2Q7abJthnuFnezp0U5pF9MPrk4A+5hake8U5XdnwAeu/W7By7E/0wzstyRny0dnKsU1YdPRPPVIJoVvoq1YWxYJVVJamaUARoCuyYKFreQRaigYtTGV0k3+nrKyod40NG1QDa3bODh21qDBOBb0Ss7Tw9qQVHAtqYzsr6nJ64GDo79WFB8sYCkokQg9lMJzRw27Jgp1+6HKsqIdIn/ouHnLS7akdAw+X/ugv1B+xYMGeI99e+npZeiIL9koiWKCMmT8hxleD/qZ/flWjQbwYdbjv8pvq1F9Cf/kttzhNVINwMOyCwxKL0BnOSRj787CkItxLUVnKU+cMhhtwYZmBYRJT43D67qxYqA0P7clAcWoYRSNqfc8UISyvpe/RLxZUYiPcEAJT9rJUxjXSigXaypwUsK7fk8LnrhRNFYKVWw/UOIHxNh90k0gEEruFjqJWVFSaiUJ0SgLl3JKCR0p7HjCWnglrGc9sxvOjAILRdeYz238QLHCibB0PB+nPNzkr85WylERoazqyptavLEiBpS1mJi0VYIXuixYs8BMy2pNCos3hsBEzDX8OzkPCf7JgFzZ9ySZXnxo2+I6UEcXBccbkMcxm9L1ILCURuiHNmQfqxs+lKGpI8IKkG1+ejaYJ8yGPFqEIJQzXaY6F8vNRWWUkOFFas8FwPS05nzcOiWDytkcCw64aMehift4dCWrYtodujzUb/ZAITiNGSUzNV1ehzHuh/FyrCLH1yAir0vmZrkGzdQ56x3KPKgtvEIlgGoZ+/E4cmCM1SlwVc5bOU9DftvFG10G37sxnOp9rFCOCjDMV8Pu1HHo/va71ch5FtICLwCmCliQm50s1FDf0sRQtWRAM0TD2t0jDhJWwo3a1KcTE8k7BiDh7Niz9yTvDHKcCs9xKEXhZFpQeyWAjZhrbdWngB2aYVCR4DtFn9X5dhhn031Uk7DMwRWhs/MMs1UNUml9UJGzcQr/U1+bucIU3i0RgLaR7gD0b9LHs3J1JoM7RxwqiKEEJYaOKHshgKZz+ksLdDAyvBSmXzZiyfGJALTQz6VlaPRr2oaEdjPP+zdLCahj9nhoWLHBsvJ97GmaLDpPGcTA5XEhSk+ivTGZ2OpSfj0uwBqEMrYn1tDw1WH1orOamGG/ELNQwIZQtqOFM4cYq2rnaqMGYpUaAlNrPk7o4KT0oh4TcXCuwVQoy147gzeOAFUbXeusUVz3l8n5ZmHs+Rk2C9b+iLiAowQIzjFGxBbVJooVRFl3F93k08IKuQihHljpzwJF4fkr+H71pijabVY4GpdRwK8d/vV4bUDNJ5digpppMEQpmd9ZybNi41czbNCw2XYMWpzK3/JMwlymOHpHSaFTgwLjmMxJm6WeAViKXPJUxfPvX7rdKBO9vc9KtbKZz0Lpiecr13Gh3w3kpjCaZl5z0ETs2epBb4DyUMeEg9C6K9blIbMZomd6TpgVlr7JkwVxiIdqm0Q3qZWlB7TQ6bs0Ge9tKkbHs4igZTLyikTkhi7O14INBF75F525l1DYtAnGapgE/RKEaPmka0LHpGS9DlvZOyDVCVpNoh87GHkK9Q41KNucnZqk5KH2JPDw1GqWLJObMge5lMuq8FqFJlE3Chg1Ov3ScsZbx4IVjKBCiVHDWqIvrf1qzYXbUMMm0EL+X3quiPpfRBm3ZoBkWnrQI3DDoXcMJyqf3SFaumdvCLzefpU4cCMzfmQebSuUdLobpIr80jIWJCnqNXuF/N+qGG+MFwECjpCAhTNT6NJgqoxffEyz4PkEAfhFiDRIZyFIjlirInMnngYmf6WyMWWr0RErz5y0p+LLQo1NaDmRoCzPbJKlRFUoprRyFZqegTpTB5t8FqCtEuTYIV5OwYYRLFMzO6clJf7Fnw9ymwKBfkghITo/6/p1U/FWEBifChZYscJzI6/qrx0tGAkX1wzMHDtjD8vZ4ff68X/QstaJeOt5UWCb6r5dBfCYrFhAmvGCj1HKdYKwVA8rwCWrVe+F/ZyXDDAfBgps1WtouJWHrKjocHEHNl5Zjw/LdctS8qw21EuihLGfm1oilMhI1103ATBDkvWmzjmCWmgXTF8u0Q5xjLSRYaGoyvMULEqq/U6qUBQs2/H4qg9EgHWOhJRUv11BllpPgsts8HmYIHage5sQBD5jhScZTAllaWJhGr7YJiAXnoVMSRoBUiTZWjGlYNJQquD8DBeh8323Z4NFW1GigepbmtfFKSdQ3gdlb2ZoNroiGd2f0dGbrXB2MXknm/GwWl8u+qiLRxeyc5QcVOBDMZYIQLHaThTDv5RkNEW0CuKifbrtKzFKjx/EZP7/S+VLDOxlLhf+hJaolC7YMPZQJmpKczKXHKnR+f3ZscElFCLxA6fkPggWrUsR5OrJQA0J1RjL40y9NhTWZRvzXGvjHWLPBeCPSQDm0JHHkwFWGg1MVidI1UO84ATP0taCiinbigfdMUVMhLEUIfAl8KEccggW7mMcbyH+jiubpWGrDhjdRtegifDrycq0lilUxDmGW1MqHTWkAiGGKVsKY1l0Xq5Fgwe6yhi5+WJYawmXm9zLAUoQgKJF/bE4MTicO6p+AjmUhnhom9Gj23ZMyYVNcosDVHiGg0y+pzFX+seBOkIenJlBKMZi29YtFj3VMW0rpkJYsMCnxVPCykJPw4rgpBc/vGjGMlm7BAtkyWZiPe4CJiqnThbMUIajLnlLa7dhokjCfESldyyqdC36dGJC6T2VF+LxX5BSrIdFR3TwnHT4iX4VfQcKKeQ/dyD8vS1vpNN6xgiKM0g0RwxqvIRpf0fdIBSwWdTF4STtxIO7mbjGKVIBVc4mOkAGxOUbOl3IIj0QbZscIimar0CCwhdSntFZ7SpDqdzd9KWd0aW/KaspVoVNZoC27G0zV2LNhbcdesbkxXPJibZKlQnWOo1x1yssn39eQPm6wH9e0J33eZuiPyElYT0vryT0TCouQAG83nQA3YqmCBKDoQnonFKYC6OvN+wWzNC8mX8sRNQkuNfW5wFV9UBVrFqwOmyIElwPaRXuiIGe2UE1CPAdP6r3uyAHDSb79ON87TFCjHymLsSULNGe9W6yWcmelN5spzwZ/8ba8nOhnBAuMwF7RsLWpkWtBvrUUctAkSxFCf4gZcWrFgveRkaWHLpylZGR7lWgIdPjZKVsL8f7pmONTDcLW5C3QxEwMtSKCYKHguM+M/IJZmhfzr+gI+JoqwGbbIh6MkHREMkMriAULlOEbUjDzRKlAJX4og9VYNKvb83LZbwu5MRXl+Eo77leMQotSYXAVo4LlNY/kECusXh7XCCsWGE5qxqCJws90BjBqjzksRShn+9Z/3dx/LcBxj17EZ8uGKFBGs8dGlRbyU89SOgBaITkLYSlJ7e9ML6n5dxZneQENLqRwhMAWcEznB4rjHhWOVamd1SBg4MZ02AXcIxpkF21b0tPVkloqERwHpoupyahvYo7b0FIR+N+zlGC65KpQvArkT6Ia+ByrAksJWwlUfCxjvNjoABGDE2FNTPM4ZrmzviLa3ceeDTNATePAvPRIZhwU4rNhMpOlH5Q5TvYhlAOg4eQwXfsm3fxnzRj0V0aOrpFv20gEo30j59t/d6CUakFroO99rKCwWahCWIoQjDu66Nb3tqNWpeW2QOU0it5DRKgxHr4asrQrH2a8vu1UNqxHBT2DWBVs1jJRCDot7WyUdwrUkFGgrbFhIiEgFrWIAzeAfokgXkYJYKakGx/mRQNjUW1uLg3WqAT6px01PUiwwHeidTzang4LSgzXmhfUZvOPm8lSDQJ3PFqtsGGDa4F+/KyvK0mdsz62C7XO23CzOX02hOAWeGpw2LicbcxDBQn2Kvr2OxS8dpRE8OKbrAuVZjQuRQjeYkcyQe+g0RsvgJdm3iX+//qoCNQwDTYjGdapGlqqtChniU8LymvF8Ba+ve9lm6X081CRMDtH67RN4sDXvB4XqAibRHAY01G+TDP/oAULhn8uUfA6qMOFMXDfBCZab3kOxE8qSBr8lx5jJksRAi1AHx/YOxqC9Bv2aUSFTfsjgyGGDRvcoS5ng3ut4WtFRaIUavOr6UIwg/VIgN3oDMWyFsHKTweKXRU48GpI1hiP87VU+KU9BrPceVmKqIiHE4WMc5gdG00UwMBEQFns6Uhr6RpQeVaIGIPc4MRcE0IkQrd1G95Vj0G/i0H4qygze7omV5v/C/5fz7XfAkvjVKBt0pS7LYUZvHsykAbLReCk3okHW6c14OZSVv8NCFiRA4pipSj4UpEDDHSNAmLro+DToeLrcEG6to4Ha9DPKWCzvZENskKDwC5FVzogEfp3sSfzWUqvBaOlE8HKh2CI2n5uajLcJt1m72hYsX0lG72Ww1D/hRzcFZak5kyH1opBpyXIaBY2RQOaP+0rUjUaAHkqh3cEjxoycJSwhnsKpdroVybky1J6Nrstj4n5AFO+XJCZf2QAXe9KwZuqE48xjNlSrxWjdcLxKuZ9YcNGreJh3vtSNow4/sjImToq9idSWgV+Cyy9lg1bxRAsIFheRU5FAqkeytCOdOAbrRjbscEiuigV+tnsZNhXYn4KCIf5KeCTSPdjRw7MGVzKhpFq3oj4JAJRQyvYHXmfOSNa+FM3n6W0dPpRwIzP7djgc593fUKiGm62ekyOhRxG3dGgGuiXgxKU1uDHBZ/4vHYmLQJP4I4G7PLlwoZ3YwTw6UbtCVI1GhSNgbroYQWxVI3Ac6tvArw46IdCw27014kD1ofrUuP3hUgDoxX94gf9Va3iwbHkG0vfAkv3Z4CcJFjw9i08XclmgmhbssBKbBSxVoMgjAjtCWxN0dgo8qBR4fEqEMX/RutrHpe/q6BR/qL+nCwEi3GNGJAVkabC+Wip2d3GsZC/Rgz6ngchSAz1Vbr2DC3owx15ULJTbqsbbXLz48IQ/aIkn/XfdAkqElSVAYnAdn14x3+DkluzgOqBsfCC+KiEbQHolowXFDaz+kkJa4CbxIEVUD+7RtvknDmgAU0QwNswb9JQ/tXN4pjFDzRLaY9FI3eovNeWuSPfAkvXihi2mOO9vUPMrG4pR4Xt5RuodGwlCFi6r/hxYeRTeEpQMzI8IBaieBd7uisFe+xfGeAyYU5MmSwtuGHQl/yVAQO5giaHeWrwspxCed6258ELqzMPJOHSVBh55hXCeW+NrwbdckQSahsPl3fkgTl9Qxo0ACEYFb+WMy25Lc1HJhsWqCAhcPnmNCihMw9eee2pxtARQw0jThheRQ+2n8rB6ao9D15kHXigMz+Xl4iNwKjqL/zzW2Dp7GRmiLI2zSz0pgkZi+i/gVGWpjKdMkUD2wrSEfQrRUEXNJlgD3Jqlr8mFXTPZP6vM4OUzCd8kflNzdDCuNTIWGX+5XlzRquMw2vkzWN0JFsLi43yLtkzylZ2f5Z5lmoRrA6jBeA/WWY9iCxtToxcPy7Y9FM04KhAq812bDCr5J0YyFt0ioZZO1o5CsyMOGEESgiBMs/SbC1sYkkPSwqPoKNHUIvQEznjoEtHEl2WysQcIShnwLzx7PTXGn5J00C4fdi6ho3W5gmDZpgTf8cI/BcEyjxLE9QwmKRZyjMYZBYOipyKwaXfc0lvIawZA5MTZqZ0DbPI24paGWfmVTgbRqCoCJR5lvLUOe5m+e6qVhAiIg2sa6ONtDRLK1Ob+eadyymkBHq+wYYNsaRxwgiUEAJlnqWZWmaL0X8XHL/Oz2RfEHBKEnY9pCdaaZY2ioU5+oLsonnL+ddTpzslxsuz0Rqs8eYFCB8pJgTKPEv/DRg9RBdd2vxQtzDpJ82ht17jHS0w3lSmEJyFGsb7vAIHpgdxwgiUEAJlnqUIwcQ3HS7wuKmgfjSIShJdz4blbHpFNyg2x3VulADm+sxJiWrkR8XRdo0CTx2cMAIlhMC3wNL5Kcw85ywzQkKnaSAEnj6MnWsUbHR/UQJ2IDoEGfjB8sG9RlKo7ktHf6bnV31imN3HS+gh4WL/nyPwLbD0D52HoB831+YoRo/2342eolXgxl2HWsBtSXm0TRUyKu4rOfij6onaIh42FC4kwrWaBC2XlsYt42FAixNGoIQQ+BZYylWBgxi9EPx4fo4NahJcSc9LQDemg19bsWGn3aWpudZDvVGg8QLGt8GSBTusLROBx1lep3OEoMC2lOORPRUZzByvuhJ6hLjYbx6Bb4GlCMGiFnrdY9M4cCWlOaOllmtFKsAPdrIQFp3SS1gsWRCsKCwjn+Vm8WqI4ktHJCNYIFq78WExzQdFriCgyRrwEadLo9dzfvMdBd9gKSLwjbD0ajY4D9F7Qv+7vfRyEawvDcuAxWhDE4F1+ghJ5anIg5clBfpkS7Ww24V+/RpBKcZDEsEd/LQEXPCPZcICN3oxpz0Vyv3Ttx7RoxQ7KK4aIfSNsDRNAzsp0o649LYILtQKb/0UCyytYqNGsbDp2BNdWN1CesDlbFj6WMMgBJk9G9WKASFcTRe9xYYNsQXDTS2dKaQWfAojYA4C3whLEYIYvL+k5lrNrKeoBQsINjwJHOvNXHyoQRCMZ5cY/On15NcXSMdPComDNeI4YQRKGoFvh6UQnE6NtothO4lOPFCAfbmguHbmgdvDbjHYe4q6iF9BQmiC9Wmw6LkjD+K21ONClP1QPixlpCPol/QTwuVjBL4pltKPM1UD4TaPZcFuC1eyYflLtPI/LT6UaCGoyiMZSM7DmSCQX8sLDGWAuxRGoNgR+AZZWuwY4QIxAqWLAGZp6eKPa8cImEYAs9Q0RjgHRqB0EcAsLV38ce0YAdMIYJaaxgjnwAiULgKYpaWLP64dI2AaAcxS0xjhHBiB0kUAs7R08ce1YwRMI4BZahojnAMjULoIYJaWLv64doyAaQQwS01jhHNgBEoXAczS0sUf144RMI0AZqlpjHAOjEDpIoBZWrr449oxAqYRwCw1jRHOgREoXQQwS0sXf1w7RsA0ApilpjHCOTACpYsAZmnp4o9rxwiYRgCz1DRGOAdGoHQRwCwtXfxx7RgB0whglprGCOfACJQuApilpYs/rh0jYBoBzFLTGOEcGIHSRQCztHTxx7VjBEwjgFlqGiOcAyNQughglpYu/rh2jIBpBDBLTWOEcy9jTFYAACAASURBVGAEShcBzNLSxR/XjhEwjQBmqWmMcA6MQOkigFlauvjj2jECphHALDWNEc6BEShdBDBLSxd/XDtGwDQCmKWmMcI5MAKliwBmaenij2vHCJhGALPUNEY4B0agdBHALC1d/HHtGAHTCGCWmsYI58AIlC4CmKWliz+uHSNgGgHMUtMY4RwYgdJFALO0dPHHtWMETCOAWWoaI5wDI1C6CGCWli7+uHaMgGkEMEtNY4RzYARKFwHM0tLFH9eOETCNAGapaYxwDoxA6SKQP0s/fvx4B6eyjwCbzVar1aXSw4RCYdnH7wvdgckHlD9Lz5w5s2LFil9xKssIrFix4uXLl6XI0r///hv3osJ70PLly8PCwj6fpWfOnJFIJCavxxm+TgRSU1P3799f6ix98ODB14nPV9KqnTt3YpZ+Jc+iFJqBWVoKoBe9SszSomP2DV2BWVomHiZmaZl4TCXVSMzSkkK2WMvFLC1WOMtaYZiln/nEtGp5dkZaenqW/EvYxr8sS7VqhTQrIy0tNUUIKSUlNS09IzMrW67SkuRn4oUv+w8IlFWWajUKWVZGeloq1Y+SU1JE4gzoRhrtfwDD/EtJdcKjbRPbuHnX6rf1gUJb4l33i7FUq5CkC97d3rd6bJ9mgdUqEJAqVK0R3KL3DxMW7rsXL1aU+L2a/xT+3+TMy1KSJFUq1RcDQCgU/v3330Wx8ZJqWUbKx4d/b5k08LtAD6oflXdx9+/Ye+yivQ8+JSu/RNNlb/4c0tibqrvqghfqEn81fBGWkipJ8scji0K9Catyzm5VPb28vb29PD3cKpa3sYJbtRu57Y1A+iXg/SbqIDWQiqVrGLFUJpPFxcWFh4fL5fIvA1URWUqqpcn3d433c7C1KlehcjW6I1V1dSpnTRCEd8/l5z5kfol2S97+OapFDWtLazvnVuvfFs+jKKzdX4ClGpng/tr+AXZWFuVcgydtvRaTqURIqxLHhO+c2KKmHUEQ7RYd56Z/Cf2+MCTKxjlSo5QKIl68jWClFYfU0LNUoVCIRKL9+/c3bdq0SZMmd+/e/TJ4FI2lmqw3e8bWdC9HELb1Ru54nqhEiFSJoy/8OszPnrBqO27v86RieXmZvHd13J2NkzoGtBu4+Y6w5BVeVOIsJRXckwvaV3a0Igin3jveGHYtTdzdmYNCCMJu7LYbQixKTXYNUqvMTom4sW9C2+CBs/d/SDN5gekMNEvv3bt39+7d4cOHOzo6BgUFnTx50vSV/zkHSZIKhSI2NtZ8jZdMuDGrRX0HUL/8Nr7Wt0ArfHtoWifCq8f0s58BClmYRYQ0ScFCL9c38T9+KWmWakR3t3Sp5w6KrdPka+m5Wyt4vmxSqLtbx+XH36Ub0JfUKCXpKQlxMVFsdnRMbEKyWKrU6EatpEqenZmeJkoW8HiJgmSJUqPMFgv53ChOTCxfmC6nBglaVXZaEj+GE8XlC8QShe5irUomyRCLkpMS+HEx0XyxQqPMSObHxETHJSZnSpV5ngiplGakJMbHRLPZUdFQek5RSKuSZWeJ09JSBHx+YlKqVKVRSNKT4rlR0VyeIM2gwcwtkxpVtjglIY4LNxUbn5SaqWA0JVItB5OaKEXAj09KTs1WqpWSdAEvJiqGG58kkqioZpFaTVbi++u/z2hTy4kgavSasvv2OzabHSfKVtG9jFRlpycnxXOj2Wx2VEwMXyCSyNU60HLDbvArMTFx06ZNEyZMcHBwcHV1HTVqFJfLlUgkMplMoVCo1eqS64RyufzWrVtbt27dvn37vXv3DBpV4Nfsl3+0beRJDQddZ15IztapX2ms8ytG1/h++saH8bkUdbVULEyIj4GnF8MTpGbJVLSk1aoVMkmGKCWJHxfDYcemqUitSpYu5MXExcXGxnPZOSmClaIilem8nCM8QYpUrsjOzIBuFM/lfIhOVhrADCVliQR8LnRedkxsfIIQHpHulkiNSiZOSYyDxxTNjU9MzZRp8nQ7Xeac/yXMUq3g8qIutZwpYEceS82pl/qWyXt+80zYgWP3OEKZhjmnVWTEvL28fcHIdnWrOBKEc9Va7YcvOnjzjUBCsyjz3flDWxbPnjK8d+Mm3QdPPHD7Rfi+RYObeTnZutdqPvDnY4+iU4Txr6/vndEjxN3OoVrzPot+vxIpkFJEzWRdObL+lxkje7RqXte9Uof1V15dXjmseeWqLnU7DF9z8DZLmM08RmiLKjMh6ur+ZT929q/qTBCOrjVbDvp51+XXvEzqjaERvjj39/bls/83sldIqx495517/uLCznmhftUdKnkH9f7f/usf0xW6W0KkRpHFe3dn39JRret5OBJEpeoNu09ae+ENXwbNyoy8cGTn6lk/jez3XXDv0XOO3nt+bdfcPkFVHNy8/UN/+u1udJoaIWVmwt/TA2ggKTTpPyG/Xo6RapAqKykyfO+Cod39vMAu5+hWpcWghf884+Xqs0bgUz/v3bvXtGlTS0tLgiCmTp26ePHidevW7dq169ChQ+fOnbt3796HDx9iYmLi4uJ4PF5iYqJAIEhJSRGJRGKxOCsrSyaTqVSqz2OySCSaPXu2h4dH69atjx8/rlQavKfzaypCKOvZzk4Nq1rQtx44bM+dmCSRRKlFKkm6kM8VZClVesi1ygxBzO0/FvZv61eZIOyd3Zr2nLz55OOELKCU+NP1Y7tXThsZ2qKuu6PLwJNR6awHx+YNbOzWKLCubwhtFSIIwsqhovuIw/HKiDVNGMgtrO07T1h89fbNQxuXTxnevV1DT1vrLgdjmFpJjSorMfLu0Y1T+7XycgWR717Hr13/xZdiqedAapVZSe9vH/llVKd6YD6tUL1hp0lrjr2NzzQ5sC1hlqY9X9UtxIW6R6flZgx1tNK4a5t6+FraOVau6evv36Be9aoV7K0Jwqf17EMvUmVahNhHxo/p3KgSFFmxWv1uAwZ1bd7Yz69+jSrl7cCCQDToPfd/A5o38Pf3863uDno24RowavPlRAVCKOHWxmXDWla3tbYgLCzKBXXt27OZn1+Duj5VnOwsCQffvktPfBDJqdctKUt5uGVwQ0vrcu4+9f39/erV9KxQ3oYgPFuO2f4sLkNDip/snDG2R5ATVOlcvdag0eN6Nmvg71fXx93RHiqtM+hopIiW4VpVFvvmzmGtPBzcvOr4+gf41a3u5mBrRVRst+QR2Mw+HRw7omcIdUeutZr0Hzm0V/tgP7/6PlXsbanmd98VoyLl4sgDE+tXr+wMh6wd3LxqNwgICAiYdvSVUKnIeLRloIeFpa2rV32/AH/ful6uTjYNB68Jj5YV0N31h2/fvt24cWOapW5ubj4+Pp6enlWqVHF1da1YsaK7u3v16tXr1asXHBzctm3bHj16DB06dMKECbNmzVq2bNmWLVuOHDly8+bNN2/efPz4kc1mR0dHc7nc+Pj4hIQEgUAgEokyMzNlMllBMjk2NnbUqFHOzs6hoaH3799XKOAhFZYS7y7qHuxkDe8UgiBs7Ov2nf37tZexQrE0t51VI+HeWTOktoWDq089/wD/BvV8qjjbEuXqdFtx6l2mBsWcHde1uWcFKyjHscKo3Wd+6+8Lbzeb4FYteg1o4u5EAU9495mz9wZLo3ixyb9BbU8XwsLWrX7XhYevXNj/84BgTwd7G2iE3ayHdN1ajZj7dOeU9rUqwdPx9QtoUMvTyc7awm70aR48B7Uk8d6eyW097d08a0MvqFeD6irOrRec40t0WkEBN1/CLI253L+9H41prz/YBbQh57As/swEf8LSvlLzETtepao1koQ7e39qWbMcvD5Dpl+OSod+T2q4/0yBMq2d6naY8Md9boZckXR/R/dG1aAHExV6Lj/PzlCqs1OubxhEvxc7jP3lhYCpJfvOr67O9gRh4dx47F9PE6SKLO7tPaNbetoSBOHVfc21yEwNQnLB2ZnNCAurivVCtz1MUWnliS9OTO/mVx4ea8DUA08ZLscd6QE1WlWo0eJ/Bx8mZqml3Dur+jZxo9ox+WiUEl6y2gzujdmtK9hW9R289nx0ugbJ4q8u71oPWFlz3mUBKEMq6Ye/J0NJFhXqd/wp7AE3SyEX3v+tQ70qVEnd/o6BxmuyEi6vHVqZIAiPTnOPvBLrYNOwwtpZWRK2DrVnn0iUInUa58T8gf6dJx54nazLUuD/1NTU2bNn16lTx87ObuTIkYcOHTpz5sy+ffvWrl07d+7cMWPG9O7du2XLlkFBQYGBgQEBAQ0aNKhXr16tWrVoPleuXLkSlTw8PGrWrOnn59esWbOOHTv27dt39OjRCxYs0DP55cuXb9++ff/+fWRkJIvFio6Ojo+PT0pKunfvXvfu3Z2cnNq3b3/jxg2ptHD7hDrm0qrOwV7lLBmBShA2FT2aj191+DFLmKXT8ElZzMGxDe2sLbwGrX/IUyJNNvfm5qHQDV27/S/sfaoWKaRi1rFxbs4WBGFr16HboCDfBr7e7o7enUYdfvTu6trB/u7wxm+z/r6UUq5IefrjXcOsnHz7LbzCowgleXmwQzDVuYJXvKFEoVrCv7G6vw9h7RbUd9WFT2IFynp79IcAb7ugJY+yFIhUx4X/2qqidZV6nVefjUxTIQXvweoeIW4EQfhMPsfLLNzoVcIsjb7Qv50v9D+CaPt7RIGdhTkhu/9LY+CPZ8Cqexn0MU3Cg2UDWlCaXvXpx9ng6UFqEy7MhxLdAvptvMcMdTNfbOzU2BWODjmdSL+Z5PEP9wyiqjZkKXq7x61iecLCssrEM4wGLo27uvpHfzA2O/ZcdiZOrJE/39jM3oawKec7/5quHcmPd01uSQk87zE7PqZQnYlPs9QlsO3GV1l0e4U3V/cPoJSHMWHvFRqS1Mhe7x5cgSC8GrZed/LZKyqdXd/Njxpehf7+DkaVaumHozOgpY6Bw1bcZLgle/1bc7+KcLTpzg9U4UrRy4PzQPny7bXs4ie9nJTcWe5EsbTWjMPRyRkKTcbHf7aum7PpcVw2g2vB/2jrUVhYWGhoqIuLS5cuXTgcTr7ZSZLMyspKSEj4+PHj06dPr1+/fuzYsZ07d65YsWLGjBnDhw/v3r17SEhIo0aN/P39fX1969SpU7NmTW9v72rVqumFs5ubm5eXV926dUNCQnr06DFmzJhp06YNGzasefPmzs7ODRs2PHHihCmJKuVe3TC0RYCnC+hYTLKr5Ntl6oGbHzNglKEV310dVMXJgiDG7HlCA373zG9j20LeRiNX3IulkXv7W1VXC4KwLufVd+NNPo/z14Lv63Uff+ajTPx8b78QeOO7TD4uooYtqkzesekBrgFd1t9OYsCJOt+1eV0osedOvoZEpEbEOjOxIUFYenUZ/UcEMx3EOdz1uxrD9sVIVVpF4r4hLgRRyb/FklNML7i0oWcrLyii4/ZnqYUPTkuYpdwrellKzL+qHzXk2w+Q+tUqP2uCsK5cY/BJri6LJv7irH4NQNIRrdbcgVGInqVVGw3c8Zhhh/rTwW7NqTnuefeYAaGc/3DPMLjOrvOENa9TdAXmZSmSca4u7+cPWT3H/vZOkPF6Rwd7G0srO4cBh/TyX8O/t35gM6Ay0WxeeFw63AvD0ipNOx3WdW3J093DGlcjCMJhwblYpRZpFLG7esFF+SXrPnsjcrHUu8XYAy906wBZB1s2pN47A08LqcYXwFIUc2pAdWeCsLB3rtN71m/nH7L4KVmKwl/OOjD0MzF8Pn/BggXVqlULCQnhcvXo6/KZ958kyczMTD6fTzP5xo0bp06dCgsL27Zt28qVK+fNmzdp0qRBgwa1b9/+X0L6+fnVq1fPx8fHzc3N2dnZxsbGwsIiKChIINCpPYVUmv7m8OJBnRvVrebioOOqfd3OM0+/TFaR4ttLm4JJI59kGTxq1QPGwsSw1Mll9KVEhLIF4WGLflyw8aUQofTn63qHuFoSRODS5zBrSGbGX5veyDng+0V39U3Ts7T3LmCpWsY+Ph1kq2OjIcvCdTpM4u2tq+b8+USq1Kh5x/rm0x7qkPX3u16KSpWl/JtjOzWi9HeC6H9Qf486/ElFpjAu+uPH2GSZUoOSL42wtiIIm6q1xl7WvbMQEj/fN7IZJXl8FlzIlGtyWOoROOj3p0yfTnuyqmMQyDCbefeNWVp7wKwTUXq5omfpjEuMnEQo6emWkW0AMvuRm14kxl2Z6W1nTVjbO4w6ldOOjIhTo7+vDZm8Jp3lpIK8zoelWU93/0CxtNn6O0kqLVLJHs6hBGI5J5f6QS1yp66rrvNB49XL0twsDWvZkBLeM+/RhpWCWIqUEX9OCqrvTUkXG5dqTUYs/OP6+6QsBgcd2Pn917OUXgW+c+dOPz+/OXPm5Je3eI5ptdqMjAwejxcZGfnkyZNDhw4NHjy4adOmPj4+/v7+a9asKWy5sipblJLAjRfJqRG/IuHBvgU/flerigM1MCCIRpM23UpURP/ZtWElauhaPSA33i06TFx7/CP16BDSsbTSlBvGc1rC6790q13BgiB6/sWRIa2ae2FeQIUaoUtv5HRgPUuHHUzWklql5MHWUOgbHk1H7n6i71d6yJSPVlAKlq1jxTp5esHiy7FZhb9US1iWKqKOjGzrTdPUZcLVDKPGyFhn147r3qT5lL0RSRIy5dJI8EWycK3e7ECEXu5mPd8/qhmlGfT87XG2ksxhqU+ToX+/ZwwOepbWWvyaGg4ipJelDYcvuBqvd3qjWWpp6bHlpQ5EMuHRpuEtAeSGU3d/ShZcngUstbAt33jb25x2fDg1tivF0i7L7vOpO6FZalU1pPdxauSIEEp9uGFQEEjA7r8/T1GTwNKfKX29Tssep1j6wnQ10//1LPVpOf7Qa2Zkpo7Y3sIfCO666g2drSCWkhpZliz+0cG5g7o0qutZobw1QVRq0OXnMy8FOVMAuSvU/zJiqVqtvn379qtXr/QZSu6LRqNJTEwMCwvz9fWtUqXKiBEjbt++bcLnKfHJ9rUz+k86yMpiHrtWkfH29LKutcvDwyNcBiw9HpURdbgLw9Jf7uufet77YFhawW0LA69BlrgL/wuqWZ4gKk49J9Cq045Pqe1au/WmhwZs1rN07nm1liSVkse/9YQmOPoP+OVqglE3R0j5ZA3VC6o2+z7sIz0gM6jO5NcSZilSRBwe38zbjnq1uYw5GC0x6KikPOr0/H717QjPiXsik+VI9epXD9BfnDxq/3I9hZlj0ibf2zQk2I0grKvMPPEp17i0TvORZ6OYO9SztMf2eGY6RcdSm2ZjV96ndUbInJelpPTTxWW9fAnCzm3UtutJ2crX24LsbSwIa3ufaeeTGcS1yS8ODmvnCQr5+D0RKTJoHs1SJ69WC6/pJpniL42Hkghi0qkYsQYhjSJmW3d4S7n6t18TzoyYjZ+KnqUNOky5wGEQEt1b2KQuKG59/2Aar2dp/V6/XMgZl2rTPh7ecyVWgTTytA9XdkzoGeACinnjSRvuUJZt49oMfxux1PBUSX9PTk6ePn167dq1a9WqtWjRosTERJM1kqxTHZvUJPzn3U3OMTLJEl9vG08NV2wDJm4JT5Cn31jUorIDmJe67PxYsNW4MJaq2Sd6NapuTRC1F16XpF2bXNuhdrvlj0UGDczNUqSWRR6ZSjmne3Yasfut2Jim6thDVC9w9G01+xqvkHeHQRUGX0uapUjNv7O0R7CTDfDUutHEv1/Ep4O+ApNHCQ8OTuxY344gOi49EStWIyQOn1XTliCsnCq3W3SSK1aC7SXp4eZBraoS1i6N5pyPhn6PSE3MP1OBCLWbjTjFYsgserSiQyBInq5boplZMxnvwe4hMFESMnbLXSGTT8dSC8uqax+CXwGpkaW8O7qov6+9vXvIT38+48tIJL6/rK6TNWFh7eY/5R9WmpIktQrR47DpbX0I6woNZv35LE1OFcejrEdOXq0W61hKxp0f17M+NG7scQ6MXbVq+c21TaFhFWt/P/+v98lZ4KVAapQysYCbmKmmKKmWfjgyDS5q0GHqhSjmCafcnd+kLky69dqTQD8wPUu9Os3864VITZJqjZoks28usrZqu/6+UKpGpFr85tSyTlUJwrbh2A3hfL2JyeCRG34tRZZGRUW1aNGiX79+ixYtMtOrQf4mrH2gF0G0WXkjSkJ1dVKtELy9+HOfGgRh69Lwx203o7MR4p6f1Mjd3oIg7NosvMlNhVkaktQos9MFAlG6btJD/vjXKi4WBFHBbd1LA8nBgCP/+EevhpWsCaL1mkv/TK3tVLnzBp0FhM4RdbZr8zrwyKaflMIDVQmfhw2oAq9jnxYD9tzmgXGYJJVScWKCSKkltaq3m0JAxapYo8mcsBfJWbCQhnJxSOYmZajpKTvDB5P7e4mzFCF17PXNvb+r5WBpQVhYVm89fsPhC1fDb1w+8fvcAU097OFOh22+mkSNL5Wv9nSuXcmGsKro1XTS5pPXrl86uHZK87qVK1Rr8tP+RyIpwJnOub59cjO4rHLdjgv+evkpKVsmSXzx9+gmlN7TcPTea9fjMkl1Nv/ugdmUGlujw9BVZ97EpNOeE8y41KLiwGXHLlwJv3rhr3WT2zeo5OLdfvbu+wkSiiPyyH19AlxtCctyLo1Hrjt59fqlo9umdQms4lS58ajND+LgZaHOTPx4eXlzgiBsK/n2WHrudYRIqhDz7m7s2xKMR0SbOftPP+NJEKlJj/hngm81R2uiok/gj0t+P3n5evjVS/8c3LRk/JqbQhguSxLenllGzelU9e+x8NBLTrJUlsV/8sdgX08QikGT/rx1iyvWIrX4/cll7UC8erUetOTPc1evhj9hiaRxxwZbW1p49vz5wNnwG5dPbp3Vr56TvWvwiM3X2CaGOwiVIktVKlV8fPy7d+/M9xBMubO8ZQN449Xr/r/dp8PDw8Ovnj+2dlq32s62zh4tJqy9FEULMfHLzaEhVewtLa1sWoxY8ee5q+E3rl04cWDTopUHzz9P0SBtVsKTUys6VQA9ubzzkC2Xbj589i451xtN/nZPd69KVgTRJKR5JefKTbe/0J+GRTkJ4ZtbB1DGyvazj12/F5+F5OKYowtaeDhbE3aeLQctPHD6Svj1q/8c3DRvyaFoiRJpNezTM/08nW0IR++G/RfvOn7levi1S6cObl4xcc3FBJ0Cn5ubOb++AEvBPBJ/c+fEbm0C63m7VwTnAJhktLVzcveoXqdBcLPWa08+T2fcZJQRRxf0bObvU9kZDO3Wtg5uXr7BXX/aeCFaRCmZSHl9JnU986dWnynHPkY93jClk7szXTDQd+cbdeq7v0cEUsYXKmfDkSsfxFJqEs1S5nILKxtHV886Ddv0nb3zOkeUM2JQcs/+3K9lQE0P53I20NhyLl71Gn0/dsW5NwngW4GQ8NaqboGURQCKsgnqOuEWK/bKlvENq5ZjyiaILrs/guxXStgX14/pHFjb07W8rTVhbevo5lUv6Ls+Py6/FJ1NIvWTHb2CYRqUTvWHLjgbxXmwbEzrijr7pbWt87rHKoRUKZ8urRjQoJpLeRu78pW8fJsNX3QuIpV1dEijWl4uDrYEYWFl7eDiUcO/Vb95e8NjTEzCwV2UIkvpPlgkb/uEB7+O7hVYp3plVyfq7W5hYeVYqap3naDWvX7acPqdIMd7Sfrh1JIhrRvW9qzoYEtYWNo4uXrXC+zQe8JvZ18J5Uj2bHvDmpT5nMHcrk7IqMu8HFaAn9PjDY2rgQWJsLCu3Gz9S53lHSGF8NWJZYMauFP+xFQB9XdFwmNOZYevndAlsJ63q6O9NWHjUMmrflDLvtN2v6LcX1XSpKubJncJrOfp6gi9wK68m2edwOahw5f+w8oysWzzy7CUuv8s7oMTO5fNGT8kFFL/ocOnLVu/6+iFJx942fIcnYPUqoUR1/f8On3koNDQgcMmLdlx/kl0Rs7EgvjWaup65s9P6/94yY+5tWre6G7d9cd/fSBUi978M0N/IDR0/o5TlKedTuMlLOwatAoN7dV/8E+Lth65FcHLzjNY0GRwb4StnzF2SGhov2Fj5287cTcqNacdsVcWGhQ/eObyY5/io85v/XlwTjNC197SmYjVMhHr3uEti8cOGxA6YNjkJdtOPYwSM/7F2Xe3GpQUOn3L4deJUbeWzhzdXVdUr96jL9CTI2pJ3MuLmxeMGzJ8/ILt5z8IszQkUqW+vRG2bd6kYaGhPfsNmjB/4/5rr+IkOT02V+cz+lG2WIrU2fFv7h/dvXLJtJEAWc9e/X/6ec2uow8jE6XGI0GExKybh7fMmfBDaK++Q6cs2nnyQVQK44cqeXdk8qiBBqAPnDznGEs/C0BjlHp3bqsQ//q+jUJa9dv3Ri9JEcrmXNsya3g3g/628iEzZNVIRTH3T+5aPPnHAaFDJ/y87fTjmAzGlgmFauQSzoOTvy2ZBL1g+LglW4/c/5Ss88UwejK5fn5Bluaqt1h/aJQKpdqkMyRdpfbVTrcK5YlcNt5iagypVao1uV3VPrdkDe3p/rmXm31dGWOp2fdVHBmTHx45dvbUmfCn7+PTc73CNUqlTG5ufyuOlpT8yrViaWUxFpJ9dwV4CJYES4uxlV+qKMzSL4X0f6rnm5ClRUFAeGlGJScYq3ise5JXSypKSd9CXszSMvEU/3+xVC7i3tna17m8NWFhUbH/0qMXrjyOzzELlIkHVryNxCwtXjxLqLT/ytKwsLAXL15ElI309urumf2bOtHBlmAOxb1G3y3XykbbS6aVjx8/3rZtW6nvQHHq1KmSub9vpNTNmzd//g4Uly9f3liW0pr543p2bPudPrXr1HXCgjXFeAfr169fuXLl+vXri7HML1DUmzdvSnE3p+PHj3+BeyzrVXw+S9ls9gOcdAjcuXNn3bp1Q4YM2bRp082bN3WHy8B/Pp+v1ZbOID0zM/P169dlAKOvoInIVMp/Z0RTV/3/Oh8dHT1gwACCIPr37x8bG/v/6+bx3X4FCGCWDXdzxAAAIABJREFUmngI2dnZu3btqlYNvAOdnJzCwsJMLO8wUR4+jREoMgKYpYVBRpLkixcvOnbs6OzsXL48eIc2b9783bt3nxe2q7Ca8DmMQMEIYJYWjA1C6enpv/76a7Vq1YKDgz08POrXr+/o6Lhw4cIvuZVDYe3D5/5/IIBZWuBzVqlU165da9SoUefOnSdPnuzh4bFixYq2bdvWqVPn0aNHBV6GT2AEihsBzNICEU1OTh4zZoy3t/fevXt3797t4eFx/vz5P//8s1KlSn369ElN1a0PL7AAfAIjUDwIYJbmjyNJkm/fvq1bt+6ECRMSEhL++OMPmqUZGRk//PBD+fLli7KbWP5V4KMYATMRwCzNHyiSJKOiohYvXvz06VOEkJ6lCKGXL18uWrQoMjIy/yvxUYxAcSOAWVogohqNJjubWZtoyNICL8AnMAIlgwBmqVm4YpaaBRPOVDIIYJaahStmqVkw4UwlgwBmqVm4YpaaBRPOVDIIYJaahStmqVkw4UwlgwBmqVm4YpaaBRPOVDIIYJaahStmqVkw4UwlgwBmqVm4YpaaBRPOVDIIYJaahStmqVkw4UwlgwBmqVm4YpaaBRPOVDIIYJaahStmqVkw4UwlgwBmqVm4YpaaBRPOVDIIYJaahStmqVkw4UwlgwBmqVm4YpaaBRPOVDIIYJaahStmqVkw4UwlgwBmqVm4YpaaBRPOVDIIYJaahStmqVkw4UwlgwBmqVm4YpaaBRPOVDIIYJaahStmqVkw4UwlgwBmqVm4YpaaBRPOVDIIYJaahStmqVkw4UwlgwBmqVm4YpaaBRPOVDIIYJaahStmqVkw4UwlgwBmqVm4YpaaBRPOVDIIYJaahStmqVkw4UwlgwBmqVm4YpaaBRPOVDIIYJaahStmqVkw4UwlgwBmqVm4YpaaBRPOVDIIYJaahStmqVkw4UwlgwBmqVm4YpaaBRPOVDIIYJaahStmqVkw4UwlgwBmqVm4YpaaBRPOVDIIYJaahStmqVkw4UwlgwBmqVm4YpaaBRPOVDIIYJaahStmqVkw4UwlgwBmqVm4YpaaBRPOVDIIYJaahStmqVkw4UwlgwBmqVm4YpaaBRPOVDIIYJaahStmqVkw4UwlgwBmaYG4CoXCDRs2vHjxAiFkyNLo6OgFCxawWKwCr8QnMALFigBmaf5wajSaq1evOjs7jxs3LjU11ZClEyZMKFeu3MWLF/O/Eh/FCBQ3ApilBSKamJg4aNAgHx+fgwcP6lm6e/duV1fXLl26aDSaAq/EJzACxYoAZmmBcJIk+ejRI29v7/bt20+cONHDw2Px4sUNGjSwtbUNDw8v8DJ8AiNQ3AhglhaGaHJy8syZMy0sLGrXru3h4VGpUiVbW9sZM2YoFIrCLsPnMALFigBmqQk4Hz161KRJk5o1a3p4eBAEERgYmJCQYOIafBojUKwIYJaahnP37t329vYElQ4cOIAFqWnIcI5iReArZSn5NaWkpKTRo0dbWloOHz6cz+d/TU3DbSlBBIqVaP+psK+RpTKZjMvlRn9N6cKFC3Pnzr127drX1CjclhJEIDY2liTJ/8St4rv4K2XpzZs3V6xYsXLlylU4YQS+OAIrVqyIjIzELC3sPSOTyW7evHngwIF3797F44QR+LIIxMbGbt++HbMUFZ70LI2Pjy88Jz6LESh2BIRCIWapaVQxS01jhHOUGAKYpWZBi1lqFkw4U8kggFlqFq5lgKUaRYZImJQskii+lDcvqVXJskQpwhSxRKH+WmyPZj3OspYJs9SsJ2YOS0mNKis9mZeTktKlqhzLOamRZ4pyTsK3tGylpph6t1b+4cjYFpUd6rVafDZGbdY9/ddM2uykJ3/ObuXnFTB06dXINO1/La/Q60m1NEOUxBOkZyk0GkWGIImfG0r4xU9IEqakZ2Yr1dpiQrXQJn3Bk5ilZoFtDktVSW+3TmlnSTsEwd8aw3Y+S1cwvVeblXhxTb+ck4SVncO4Q68ESrPqN5kp49r/HKBwK5eAnn/GmMxeDBk0aZyLP3ehbsi506K/XomLocwCiyAzWEfm9fO0Cpqy9W5SwsNlrQIr2xsgTcNq7+wV2H7UnI1nn3xKlaq+JaZilhbYMwxPmMNSRfKHQ0sH+3tVcSpnw7DRd9RJTjpdjjoz4fKmwT6ebk52cLJchXqh/wuLEEqKSQSl3ZjtXd6GsHTybjP9XMmYoUmVQqnJ0Q00aVGXf+nuZGtjXb7ugNUXP2Ya4lXM38ns6PDFQ+pb1uiz+vJHieDp4T93/tynmjXFUytrp6o+tWvXqunjWaVCeVs4VqPNvL9fpsqKCdr87oVUq9TqLyeyMUvzewh5jpnDUuoiTeb7E6O71GNYShAN/3c6S6UvTsl/tnvcdwRB2HadG/YxtTi7kfL9obFdfEMG/3yBk1OfvuL/+oVUS8X8e2fvx2XlrLzRSgRP/prXo0v7sRvOfkot0cGwMv7BzlHBhFvojNMRIvpeUs5NtLOxIgjryj6jLiYgrVqW8Obir8NaeZSzAvAbTbsYnVYybSLV8izeywcvP0SJi0kRMvl0MEtNQgQZzGYpQvz70wa20LOUINr99iJTz5vUiMP/604QRMDETbcS5GZVbZSJNKnJmeGfolWrFTKpTK40px+TKpko9tnfSwZWcxn6Z4Q4nyEf5bhq1M7i/KlNe3Hg5zaEfafJm18LmSbrWVqlxpTryUxtqc8PDm9XjQK/2ZrweN1ooyhtoZ1wja7Q3zMYFxJfnts6rFng8KXHozKM8pn5M0chMfMCzFKzgPoPLCUq99nyKosx6BTIUq0qW5zCi2F//BDJio4TpEsYu5I6O4nD+hDBpPcRn1ixadJsEY+jOxQRkZierZRJxKmpAj43hv2J9TEu3cB8pFXLM1OS4qI+ftCV8v7du2f3bp0/eeryExbdzbQqeVaaMC4a8rBjeMJ0vbJIKiUizsMjc/oGuMIKnB923H72PiIi8mOyVKNRSDJEyQJ+XBT7AytWIJYbagakSpIu5EWzP0ZERH5ixSakZMpUuvOkWi7NFKemChPjuHFx8ekyjUoqFsZHffrE4sQlpUlVxhY1rTj69C/9KtuFTFh3J0n3wtOx1KZqjRk3U5mHSMbfnta/KcVS73lno2QGOJAatVSczOdyPkVGRHyCu8yQqXV0IdXyzPQUYUJ8NCeSFcNLlWpIjSI7Iy1FwI+LjWJFvI3PVCFSoxTHPj+zcXyz6g4EUXvA7P03X0ZERESnZOsM3KRWIUlLjIv69DEi8hOby0+Gu6YYrlVKszLShAlx8IA4PLGaVMkyBfFRH7kJ6TKV/iVQUF/ELC0ImVzHP4OlLpWrVLSxsSAIC8vKw/ZFZlMyIB+Wkqqs5LgPT64fWDm9W3A1Z9vy7v7tRi8Nu/dJJNeQKDl8en0vaiQLBdl7B/XZdP3ZjS2DazDS2sreZebhu68u7ls5d+6I3iGBPp61g+bcSWEar5GJOU/PbpkxtLWvozWlCcJlFpbW5Z1dG/eaczIyWyVNS+K+unV656IxrXwdrCwJ76DvJ6w6+V4godorZ11a38vPkalM98+52vKHaXH3/lw7d+KPvdr4elYKGrP6Ck+mQ0yZxYsM37tsfBc/T2eCKO/i0bzP1C0n73PTpGpgqiQ6/Mze9XP/N25Q25D2nXtvu/72waGVY9rXdXFz92k9ZOHRh1FZekZDkaQk9uHaYbVsAvqsusLRK9w6ltpWq7XqqZSumpR9ujAh1A+MaM7D/nqVrOv+pFYl4Uc8PLh6So+Q6hXLEUQl78AuY9cdfRyVIiVJRGpUUbe2/jJjQv+O/jUr+/WZduhTloz/4OS2X6aP7NX2u/pVCOvhlwRIlsreO8HXSQeC7v93G+8J4L5IdVrc+0t7Fw9uU8/dkSjn4tGsx6TNJ57yM5VahFJeHt65buGY/u0aVvfybT77Gof/5NSWER3qOLWb+NfLBN2bRwdgnv+YpXkgye/AZ7D0x2XrZzZv6GQFPK1Qb8I/HDAU5cNSZey5Bb39qtX2axQUHBzYoFbVCkDKym1+2vtcoCCTH67o2crbERhmZe/Ycuae8HdRMdf2zWhYv2olR8KqQv2uc09EvDg+vVuTOu7Qbywq+rfdR4cSJFXZnGvbBwZ52Tm612rQKLhxUMM6VcvDoNihWqsfFu899zwqQx73cMe8Po0a+QU0CmocHNjAx9WGICzLubSacTIeCJHx7p+NIwOrV3Cg7GEu3n6BQY0bN24z/uibhFtrevhVr0x1Wpv28/c9T6Nx08qE9/cMDCCsy7nXCQgODmpYz8fdwZYgqgaO2HQ5Jl1FotgLi+aM6UzppfbOXt+PGj+yR4vA4Ea+Pi6OcOcVvpsfzhUbqOJK/vO/xgVY1QmddiZSon84OpbaedXZ+R6EEamWiZ4fWdDJ156wc/GfsOdDqpSWUaRWznt1eGr72rYOlXx8GwUHN/KtUbW8rRVB1Omx9JxQqtWqpDc3NvKt7goo2zQZ8+ttIUq+vWZqN98qdjaUharOhk9Im538cs9E/xpVKlDZnKvWahDYuHHjxvPOscUaksziPV77Q5C7o3stP/o5ejjbWxLendddjcxSk5FhHRv5elJgVagfPHXTjjltQCAT9r0XXmAx9kX9reX9glmaF5N8jpjPUm383Sn9mxEEMW7XncjwTZ1qOBMEYWlfofnM4/FSUs/SSZtvJTLj0pjDI/stPngvJlNFqrI44VuHNYZLiJYT/nhOvWXFr3cM9AZyObtNOiegG6eJv7dgWIit96DfwqOzqc6YdmkWXGXn2nDsP3GQiZRxr67o36giQbj0XhLOEWtIpejxrt6VCcKqgl+3VY8o24qSe2/DxtUbTj0WZCpJTTbn4hKqchtv/4Gnoxkc0l4c6tvSBwof9jsnQy/MkErECZvfFY57dV96+j1t45Xxr8xq4UBYWNXutvqxUKWVi96cXtGzoTN0dr8f9jyIZRTjR8vhQgu7Kr791l2KEMlU4g+np3zvT2kN3629zs8ZUmoyIk4ub2NZtfP43W+YNwE0TMdSG3evmYcePX/+/HH40fUjW1Z3LF+peufZx94k6UuQC99uGFSXsHH26zn33McMjSbz0+VNPRp6gJ5DfLf2GUUShfhN2CSIfOHddtrBV/S98C/Nr+dJ6REjTtA2K42Ye3JpfzfI1mP5uQ85Zm1F4qmJ/pa2Tg0HrbkVJ1NrpZwrG3oHViQIou3i43FiNZJJRBF7+8A9O7hWaduxd9PAgPpVK5Vv8OOah3GMJsDAnd8/zNL8UMlzzHyWylgXx4f60yxNlSXfXv09iCfCsqJX818vJMS/o61HITO2PxDqLISSjBwRoRV9CpvfsxxBEEE/7nkUR2cRnBvvTBCWDpVa/faa0o40KS/+Ht+hut/IdY/jdNc+30D1AffGi65R/U4VfX1Z30A4NmTjVYGElivKq/NdCIKo6PvdClotVikVSpVuXIUQEhzsC5d4Ngg5/kmHQlz4iG5UQVP+SszSNRohlBl/YvVQyO0/YN11DvXOkT/bHOpob2VpXXEm3QqEtKkR+2f0gJ5NVB2x5XYS/VJ5uhYO2Lo3/uEYj65HGX1qQq+6VHGLL8TJdcJUm5V4ZW1/x4pNf9x4X2ckggt0LIULcpJtRb+eM48/50t1lyNE8s5Or0sQVtUaDd/7giGEmnt6SpvqoFcQdZfcAkjVWawzS2FEW6fTrBMRtPKedmtZA2/qjfnzHea2FcIHO6c1AvPf4E03o/RvLOmrDS0IwrZC5QHrLz6hUviRtb1aeEEFo7a9FdLVPl4Ev62cq7f836GXAtbd+UObNpu0+UWiAaQ6yI3+Y5YaAZL/T/NZKok4Meb72gTh9NPehyI5QqmPFn7nBjy1qtig64qj1/ZPAxvv94sOvDVSdEitRi4RJ3OfHZo/oA5BEM3G7n/KZ0YsSWcHOBCEjVPdoYfjNAhp0l/8Pa+DT51R66/GZ+sazLC0cuPFN6iSJe9OzP++JvSL4VuuC2luIPR6WztQ62o3HXeBq7sS/pMapRQ8p7iHf4J3irdf59NRuvMmWRowcN2NKGCp+sOOzt72loSVTZswfQRvbfLD36a2hBcPETz7UJSI6pQ0S52qNv/lhs4dgn916oAAyNX5tweJMJij2pUteLtlhGe5oO5Lw+NzqJfDUktb+1rBLVs09vOpZEcQVVr8tO+OwNBHklRcml8LFOn6LZbd4OtuSf3x6FA/T2uqtt1wVCF+c3AaaOGBPX6+zqUrymHpr4+ZC/NnqerZ+iAoKr9UfuyOiGRDljo1aLH0QQpCaZ/2r5k2Z+e5WDMMxZilugdX6P+is7TZkuMfMiiSpd5a2qIK8NSmav3WI0b0ap6bpaQqIyn6w+tnd25cObZ/6y8zR3UOrlqOIOxCZ5/8wMwNIhSzr7MtQdhX9517V4TUog9/zgqtWX/ApuscPUkRzVKnKk3WPsiCe1FEXV3dpyFYZptP3fM6QaolkVaWHDbahbCw9mzS58AbEMJalVSUEP3+1eM7188c3LXul6lj2oNdqnztwMX3dYZTZJKlTYZtukuJfdGdWbU8bAnC2qbb8RzXiuyP5xb1oKSk58Q9kcmU0M2PpVemDgAlhBj21/sUnXVWnco6NT3ANqDLhMs5ogtuj5GlFvbejfd9IqVx93ePbATaaZ3vp519JdSRHJFk4v4BUGglv9Zr7unxRMl31gTVrgQn6q79SLH0yf5J8LNJ78W3mabrWeq4+inTO/JnacrZcTDItLSx8274XdvcaeTWS/wMWlrSsrSCf8s1z3J05UK7ne4kZqkOiUL/fw5LTzAsJcnMq0tbVqbsL9APIOXI0mz+g22zBrZq4OHq49fkuw49u/ft0KI2QRA1By4M5+S8Zt//FkgQlq41vtv1QiJ8c3JqJ+/gYSvuxhoMaWiWulRrfuA9fSuSmPBffmxWoZwV4dNqypaj12/evnZ4SVsXC1sX316zT0ZJEdLKk15f3jK9X9P6XjV9G4a0bNNv9LjvwSPDqV7jra+ZYTMyzdKO439/KYRK0+7MoVhqZVNl0wsd0ZD04/klPShHjw6L/4kVU8dpljp7tFh1h3qnIKSOPTW5D3C54pQzUTqHBI0s5urqljZeHUYfMLAcQVUMS63L1Rh3SoCQMvn9/rmdXGwJgqg9aOnZKDBTQSLJ5P0DAXGbWiETTkXpZoNQ2t01wTRLfzgM3FWIC2Hpdzs/UIUhlD9L089OoExBbl5TLyQyOfP5R7O0cnD7v9n5nC3sEGZpYejoz/0XliJEZsdemxdCyVOapDksVb3Y2tnextLartyo7bdZwky1iL3vZxgahoxb+4SfM2JRPl1djSBsK9cafuDesxOLO1b3H/7rpVx2hzwsRSg75vrGAQ09nZ2cylmBrblchco+fs16T956N5GiShbnyIL+NewIwqvTooN3Y9KkJCk82B+Uc7/vD+sV3hyW/lTAuFTPUlXkjhbV7S0IS2ubSacSGUpo01//PauTJ0FYu4/ZcVNAW15pllbyarX3DcPmzPf7RnXxJAii/dIHCZn0tVpZ+u2NoZZVA4fufMqQWfdIGJbalKsx7QJIfW0W6/K6fg2ALY4Nh+66zZHSo21Sfnk+NSiu7N9360Mx0ybN/7V37XExbXt8q6bH9JBoUFQqeYRTyuO4Ii456MOQiiKphFwkj5QjjxTpFoduCbckTg+5NIwoJSklFD0lU0kpvdM0zeyZved81kwzHodrHx/Pfdb6Z8/es9ba6/f9re/+rfX7/fZMNWP7WF1VBJHX9c8BKEtZamy1JbmciwuFgp6aS9uMtIBfdm60yB+HYW+y9NAN0SIfjAe9dxCsQGRUaZYBtz6c8wlZKlHeFzoSZine+iBqheVgBDH3TSgWr3jBEx1lF8dtMxH5kd62pZ2p2w0V5BB5JZU96e0CXMCrux+6wQr4BtcGP3iBojx+bypRV85WbQRRHvyTg/8+Tys9E3rQ9Sqp9wJIfVfkj1EfPCH8gXg3i3Haqm5Fb5hvY+fktnLhgrlz5jht2neSWdAsNcDNhUHuVsCHMtol9n49D8d4HaVHfkEQRY0xay/UoAIBygORQOmKd0locROwsJjosrCzJnG/PRDHwvlonpiTr+4ETtNQkEFkZI3cTpQ2cTEc62l6eHqj9TBETn2U66mcWo7YxuXuBw01hkyNLOjdbXY8Ou4kis9Y+Nys6xCzidtRGWavpjZq6q9pvc5tiX6xmrNLQZhEVnGobVS5CAhu3Z3gNVPUgTlVNnU4mFHSwBXgQhx/krhai4IgFJqZzYH0mk4+jvO7nl3YMU2nLyI/8Odjd8X7A4ktVTOY7fHv5Kzs28xzh9dZ0URhMQO3U7dzc/Lyq7p7JN4jnXm+iQ/b+DjGF/BxvC3Tx0AVQWSoOpM8z5e8YKPgvnwuu7X+uSh5QjRq9vX1QGZNk+lRZb0PC4k0HztCW/oxhETfE2IpjnY1sVLCXKeCFavuUv+Eu2VPG8XZAUKM3VgY4WLaT+SwQBTm/Br7SOw1eXbBUV9VVoaiMME9JImRnBQZ5DrPVAlBdCzsg04lpdx+3MkRk47N8KQhiJKamrG+oaa5jW/Gs17XEmBNx4uyaCcwB5TUDVYEMXMfvuTwXubEeU0ZoWayNCApq7yy5kVzc0tnN8gRl0rMrb9xcM14dQUEGWm3M/I841JSTMjqSQqIDFXb1P1IUkpWXglwfDRmey2aQJVBkCEzt0acv8Jkpt583Ipy2ysyQ9dMATc1mLbqQEw+q6mHL0RL4+3NdBQQREFVz27PmeQrl86Ebrf6SUt14DinQwxWGxhzT3NlQYQDaEjVGOl8OP0eq4PT/bLo4pa5piB2MZy+JyahqIErFOKd1UnOQ+SHT3ZkvPk2Hvtl8b2boc6GcmB9IKtOs96dkJnPauVj7UUJu+YaqopCnDqWrntj/1fYxBd2N2TutRymTkHkB41e6HU08TLj/H98F4zQUu+vP8s3uVGcQcHrfJi4QwtYYgRRVNPWH6qvP3KG1QxjTVHAG+mnO2byEm9mPbclP2b7P8D+V8fS0S8qiZGckv24jYvxHp9eYTxYCZFTGWButz0yjsG8cjnpbGSgj29E2uM2rhBrfXI10kPkYlLRM3Y/eunanYKKtreeslKtvOcDZOl7QPnzJUIs7WnIO+c3y3CgOFVIVd98/tKNcY8k/h0+m5Vx3M5YxFPdBfuvlPWGUNoeHHGYajRYRVGW0l/XxNpho++m1TN0NahKygMNproEM59LQpSVv68EkxiYCuMlvkxR1oF4pF0VF/wWjZVufJWMp3uk1nUURfnNo6nIIsqa4yxtHdZ67923/7eT8fEJl1Ju3i2rbecIhEKsteSy3ypLAxqVokgdONzMZlvIYZ95RoOUFSlKg8bN9QxLA4EewYus0PWzR2n1pcj2odJGmFu6BF+rbK5k+C8eL86ZBWMa5Hw4rQ5YabSaeXDpdLPh2hpUeQSRpSj11x5hMtt1z9nC569EDwh+eZyrxRARlUBD2mTr3+5XlZ7ebTu0vxg5EKLxZDQKcez51R3DKQMn2sVUvDGh0eI4e8uRFPEbMSI8ENrI+WEgAQmtvxfuZTOKpkKRUVDrpzFA0zO9R4gLeurunPyX9aRROjRlBTkEoSirDzI0mWLnferBy17TLsTRlsq0gGUTjYZoKMlT1AaPmLPxcObje4nr5hj1pyLKtAm//HqtGhUKeQ2PknYuHq2tQaUoqGgOG2vhuu96ZSeGC7urmIEO00yMtEW5GXKKKgP0Ro+ftsTjWEpFRw/eleYt0wfEZyWlr4VD4F1Jitif59s7VyBL3wHk/aeEWMquzz5z0GkB/Y2y/fIT6fpSyGuvSg5xm25iOmHZrvj7da83nU0FcYc8Vtk77IxglDRx2A1lzAgfdzeP/acza9vBFklcOkvP2BoMHzvOZKLthtDM15ZUKGzNPeZMpy+U3He51+6kii4hu/buyV0uM0311ahURSWFPr2zpA+FOtRssVdkcmETCAvymsszov3XOLqsDjh7+yUXw9pK4gLXrVrudjA+t0GS9MdvLb8WG7zZ0X6x+76EO8+6hVh3c+GZbdbWr4Xd/N/UCukK/1V1ztmQHe4r6HR7x9W+oYkZpU3goSAunKJYF5tFksHSXX0PZNTUF8cEey2USkB3OvuIjWPd6X5mcgP0F4XdkzzqQA9dZRc91yyXtgcf3DYdyBb/B4eg/WnO6b3rHZes8vT22bU7uTfchKEdNQVJYXvXrVpGpy9fuzUwNr20uXfnKhkXxmtj5ccd8XFb4egZlFhQD1ZBHFZGuPca+lr/lAqJHtFOVt6lkB2rHZ3X7z5x7UlLt2RtgvNaqjLiDnuvd6bTl7qs9ztxMasKZASD/jvyji16LTIY8b5jGc+l/jnJED50hCz9EDJvXSfEUhzjowJU6tp8qwPxCa+9vvROWkbOw+rmV9JgwXvqvfcSj8NKjYq9cjU1r7SmRZwWLKmHcjhsnpTOkqs4v6M6P3qnzbgJs+1XOtvaLqEvmP9PC3NDTXkEoY6auYHx9P+NVdLL+484hnE5PdxP7+DtbsH27t33trGeYn/zPup64wNvSUKqbzf6+5xBlhLSNSGWEurpq1VC26ry4gJcpujpWW09xxLtgVB2e3VReugKYwSR07dYHlcisZVfbVB/5UaCymhLRH7IyOVXerOT/kpjctWFLCWkzx+QpZ2Fv2+dBfJ/B9kGMljtovihgNdecz9qwxSKstZcj8iiN9JiCaHwdSsJiuOXLXP29GbWfC6L/XXH/xnvBllKCMwfkKW82tvhrhY0RVlE+2fbnaEnY2JjY6MiD2yxNTMcNn3Z5vj8BulOkRAEsNK3QwCylBD2PyBLhVgHK/XEDhuLMToDFEUOUWVN3RGTZixw9T1+o7QFUpSQ4r+PSpClhPTwI7IUCNbTWJJxPsx/01p3FxeXrQHhsTfuV3f97ReQhFT+PVWCLCUElTN8AAABIElEQVSkjR+VpYSEg5W+dwQgSwlpCLKUEEyw0pdBALKUEK6QpYRggpW+DAKQpYRwhSwlBBOs9GUQgCwlhCtkKSGYYKUvgwBkKSFcxSwNDw/Pzs4ugQUi8HURyM3NDQkJgf8F/hGucjicrKysiIiI07BABL4FAkePHi0vLyfwvwUfmcmf62vkc3X0GftBUbS2tvYBLBCBb4dAc7P0p6g+49T+xK6+R5Z+oiiwGUSApAhAlpJUsVAsEiEAWUoiZUJRSIoAZClJFQvFIhECkKUkUiYUhaQIQJaSVLFQLBIhAFlKImVCUUiKAGQpSRULxSIRApClJFImFIWkCECWklSxUCwSIQBZSiJlQlFIigBkKUkVC8UiEQKQpSRSJhSFpAj8AQlFIo1/cwHEAAAAAElFTkSuQmCC;" parent="1" vertex="1">
          <mxGeometry x="305.99" y="150" width="139.58" height="114" as="geometry" />
        </mxCell>
        <mxCell id="1F9SLgFvnqWuvNnv6nxa-27" value="" style="rounded=0;whiteSpace=wrap;html=1;fillColor=none;strokeWidth=2;" parent="1" vertex="1">
          <mxGeometry x="303.86" y="118.42999999999998" width="141.14" height="160.63" as="geometry" />
        </mxCell>
        <mxCell id="1F9SLgFvnqWuvNnv6nxa-28" value="&lt;b&gt;&lt;font style=&quot;font-size: 14px;&quot;&gt;Présentation&lt;/font&gt;&lt;/b&gt;" style="text;html=1;align=center;verticalAlign=middle;whiteSpace=wrap;rounded=0;" parent="1" vertex="1">
          <mxGeometry x="340.5" y="116.84999999999997" width="69.43" height="30" as="geometry" />
        </mxCell>
        <mxCell id="1F9SLgFvnqWuvNnv6nxa-32" value="" style="rounded=0;whiteSpace=wrap;html=1;fillColor=none;strokeWidth=2;" parent="1" vertex="1">
          <mxGeometry x="553.57" y="119.85" width="101.14" height="160.63" as="geometry" />
        </mxCell>
        <mxCell id="1F9SLgFvnqWuvNnv6nxa-33" value="" style="rounded=0;whiteSpace=wrap;html=1;fillColor=none;strokeWidth=2;" parent="1" vertex="1">
          <mxGeometry x="685.5699999999999" y="114.27" width="101.14" height="160.63" as="geometry" />
        </mxCell>
        <mxCell id="1F9SLgFvnqWuvNnv6nxa-37" value="" style="shape=image;verticalLabelPosition=bottom;labelBackgroundColor=default;verticalAlign=top;aspect=fixed;imageAspect=0;image=https://miro.medium.com/v2/resize:fit:590/0*_9CiO0jG2X8sI9b-.jpeg;" parent="1" vertex="1">
          <mxGeometry x="818.8899999999999" y="219.93" width="111.07" height="54.97" as="geometry" />
        </mxCell>
        <mxCell id="1F9SLgFvnqWuvNnv6nxa-38" value="" style="rounded=0;whiteSpace=wrap;html=1;fillColor=none;strokeWidth=2;" parent="1" vertex="1">
          <mxGeometry x="815.14" y="120.74000000000001" width="118.57" height="160.63" as="geometry" />
        </mxCell>
        <mxCell id="1F9SLgFvnqWuvNnv6nxa-54" value="" style="endArrow=classic;startArrow=classic;html=1;rounded=0;strokeWidth=3;strokeColor=#2089EB;" parent="1" edge="1">
          <mxGeometry width="50" height="50" relative="1" as="geometry">
            <mxPoint x="165.99" y="200.14" as="sourcePoint" />
            <mxPoint x="225.99" y="200.54" as="targetPoint" />
          </mxGeometry>
        </mxCell>
        <mxCell id="1F9SLgFvnqWuvNnv6nxa-57" value="" style="endArrow=classic;startArrow=classic;html=1;rounded=0;strokeWidth=3;strokeColor=#2089EB;" parent="1" edge="1">
          <mxGeometry width="50" height="50" relative="1" as="geometry">
            <mxPoint x="520" y="200.14" as="sourcePoint" />
            <mxPoint x="560" y="200" as="targetPoint" />
          </mxGeometry>
        </mxCell>
        <mxCell id="1F9SLgFvnqWuvNnv6nxa-58" value="" style="endArrow=classic;startArrow=classic;html=1;rounded=0;strokeWidth=3;strokeColor=#2089EB;" parent="1" edge="1">
          <mxGeometry width="50" height="50" relative="1" as="geometry">
            <mxPoint x="648.5699999999999" y="198.39" as="sourcePoint" />
            <mxPoint x="688.5699999999999" y="198.25" as="targetPoint" />
          </mxGeometry>
        </mxCell>
        <mxCell id="1F9SLgFvnqWuvNnv6nxa-59" value="" style="endArrow=classic;startArrow=classic;html=1;rounded=0;strokeWidth=3;strokeColor=#2089EB;" parent="1" edge="1">
          <mxGeometry width="50" height="50" relative="1" as="geometry">
            <mxPoint x="778.8899999999999" y="195.45" as="sourcePoint" />
            <mxPoint x="818.8899999999999" y="195.31" as="targetPoint" />
          </mxGeometry>
        </mxCell>
        <mxCell id="1F9SLgFvnqWuvNnv6nxa-61" value="" style="endArrow=classic;startArrow=classic;html=1;rounded=0;strokeWidth=3;strokeColor=#2089EB;" parent="1" edge="1">
          <mxGeometry width="50" height="50" relative="1" as="geometry">
            <mxPoint x="933.71" y="198.23999999999998" as="sourcePoint" />
            <mxPoint x="993.71" y="198.64" as="targetPoint" />
          </mxGeometry>
        </mxCell>
        <mxCell id="1F9SLgFvnqWuvNnv6nxa-63" value="" style="endArrow=classic;startArrow=classic;html=1;rounded=0;strokeWidth=3;strokeColor=#2089EB;" parent="1" edge="1">
          <mxGeometry width="50" height="50" relative="1" as="geometry">
            <mxPoint x="445.57" y="202.73999999999998" as="sourcePoint" />
            <mxPoint x="485.57" y="202.6" as="targetPoint" />
          </mxGeometry>
        </mxCell>
        <mxCell id="1F9SLgFvnqWuvNnv6nxa-65" value="" style="endArrow=classic;startArrow=classic;html=1;rounded=0;strokeWidth=3;strokeColor=#2089EB;" parent="1" edge="1">
          <mxGeometry width="50" height="50" relative="1" as="geometry">
            <mxPoint x="263.86" y="202.73999999999998" as="sourcePoint" />
            <mxPoint x="303.86" y="202.6" as="targetPoint" />
          </mxGeometry>
        </mxCell>
        <mxCell id="1F9SLgFvnqWuvNnv6nxa-66" value="" style="endArrow=classic;startArrow=classic;html=1;rounded=0;strokeWidth=3;strokeColor=#2089EB;" parent="1" edge="1">
          <mxGeometry width="50" height="50" relative="1" as="geometry">
            <mxPoint x="504.5" y="324.9" as="sourcePoint" />
            <mxPoint x="504.5" y="274.9" as="targetPoint" />
          </mxGeometry>
        </mxCell>
        <mxCell id="1F9SLgFvnqWuvNnv6nxa-67" value="" style="endArrow=classic;startArrow=classic;html=1;rounded=0;strokeWidth=3;strokeColor=#2089EB;" parent="1" edge="1">
          <mxGeometry width="50" height="50" relative="1" as="geometry">
            <mxPoint x="610" y="119.68999999999997" as="sourcePoint" />
            <mxPoint x="610" y="69.68999999999997" as="targetPoint" />
          </mxGeometry>
        </mxCell>
        <mxCell id="1F9SLgFvnqWuvNnv6nxa-68" value="" style="endArrow=classic;startArrow=classic;html=1;rounded=0;strokeWidth=3;strokeColor=#2089EB;" parent="1" edge="1">
          <mxGeometry width="50" height="50" relative="1" as="geometry">
            <mxPoint x="735.58" y="116.84999999999997" as="sourcePoint" />
            <mxPoint x="735.58" y="66.84999999999997" as="targetPoint" />
          </mxGeometry>
        </mxCell>
        <mxCell id="1F9SLgFvnqWuvNnv6nxa-69" value="" style="endArrow=classic;startArrow=classic;html=1;rounded=0;strokeWidth=3;strokeColor=#2089EB;" parent="1" edge="1">
          <mxGeometry width="50" height="50" relative="1" as="geometry">
            <mxPoint x="829.4300000000001" y="118.73999999999997" as="sourcePoint" />
            <mxPoint x="829.4300000000001" y="68.73999999999997" as="targetPoint" />
          </mxGeometry>
        </mxCell>
        <mxCell id="1F9SLgFvnqWuvNnv6nxa-71" value="" style="rounded=0;whiteSpace=wrap;html=1;fillColor=none;" parent="1" vertex="1">
          <mxGeometry x="180" y="-15.45999999999998" width="796.14" height="440" as="geometry" />
        </mxCell>
        <mxCell id="G5L4kkAPdPUxKZ6vt1ql-1" value="" style="endArrow=classic;startArrow=classic;html=1;rounded=0;strokeWidth=3;strokeColor=#2089EB;entryX=0.5;entryY=1;entryDx=0;entryDy=0;exitX=0.5;exitY=1;exitDx=0;exitDy=0;edgeStyle=orthogonalEdgeStyle;" edge="1" parent="1" source="1F9SLgFvnqWuvNnv6nxa-2" target="1F9SLgFvnqWuvNnv6nxa-6">
          <mxGeometry width="50" height="50" relative="1" as="geometry">
            <mxPoint x="240" y="290.14" as="sourcePoint" />
            <mxPoint x="240" y="370" as="targetPoint" />
          </mxGeometry>
        </mxCell>
      </root>
    </mxGraphModel>
  </diagram>
</mxfile>
